<mxfile host="app.diagrams.net" modified="2023-09-08T19:16:50.654Z" agent="Mozilla/5.0 (Windows NT 10.0; Win64; x64) AppleWebKit/537.36 (KHTML, like Gecko) Chrome/116.0.0.0 Safari/537.36 Edg/116.0.1938.69" etag="hT1bNrvktA5JCBdnWwEt" version="21.7.2" type="github">
  <diagram name="Page-1" id="01P2BAcGrZNdCIUBJ1gP">
    <mxGraphModel dx="1109" dy="615" grid="1" gridSize="5" guides="1" tooltips="1" connect="1" arrows="1" fold="1" page="1" pageScale="1" pageWidth="850" pageHeight="1100" math="0" shadow="0">
      <root>
        <mxCell id="0" />
        <mxCell id="1" parent="0" />
        <mxCell id="z2O95b-8UDkkQNOVp0Xu-1" value="" style="rounded=1;whiteSpace=wrap;html=1;fillColor=none;arcSize=5;fontFamily=Courier New;fontSize=20;labelBorderColor=none;strokeWidth=4;fontStyle=1" parent="1" vertex="1">
          <mxGeometry x="80" y="263" width="976" height="458" as="geometry" />
        </mxCell>
        <mxCell id="z2O95b-8UDkkQNOVp0Xu-12" style="edgeStyle=orthogonalEdgeStyle;rounded=0;orthogonalLoop=1;jettySize=auto;html=1;fontFamily=Courier New;fontSize=20;entryX=-0.002;entryY=0.51;entryDx=0;entryDy=0;entryPerimeter=0;labelBorderColor=none;strokeWidth=4;fontStyle=1" parent="1" source="z2O95b-8UDkkQNOVp0Xu-3" target="z2O95b-8UDkkQNOVp0Xu-2" edge="1">
          <mxGeometry relative="1" as="geometry" />
        </mxCell>
        <mxCell id="z2O95b-8UDkkQNOVp0Xu-3" value="Arbitrator" style="shape=trapezoid;perimeter=trapezoidPerimeter;whiteSpace=wrap;html=1;fixedSize=1;rotation=90;size=60;fontSize=20;fontFamily=Courier New;labelBorderColor=none;strokeWidth=4;fontStyle=1" parent="1" vertex="1">
          <mxGeometry x="575" y="454" width="290" height="90" as="geometry" />
        </mxCell>
        <mxCell id="z2O95b-8UDkkQNOVp0Xu-53" style="edgeStyle=orthogonalEdgeStyle;rounded=0;orthogonalLoop=1;jettySize=auto;html=1;entryX=0.18;entryY=0.977;entryDx=0;entryDy=0;entryPerimeter=0;fontFamily=Courier New;fontSize=20;labelBorderColor=none;strokeWidth=4;fontStyle=1" parent="1" source="z2O95b-8UDkkQNOVp0Xu-4" target="z2O95b-8UDkkQNOVp0Xu-3" edge="1">
          <mxGeometry relative="1" as="geometry" />
        </mxCell>
        <mxCell id="z2O95b-8UDkkQNOVp0Xu-4" value="VMU" style="rounded=1;whiteSpace=wrap;html=1;fontSize=20;fontFamily=Courier New;labelBorderColor=none;strokeWidth=4;fontStyle=1" parent="1" vertex="1">
          <mxGeometry x="466" y="337" width="170" height="140" as="geometry" />
        </mxCell>
        <mxCell id="z2O95b-8UDkkQNOVp0Xu-56" style="edgeStyle=orthogonalEdgeStyle;rounded=0;orthogonalLoop=1;jettySize=auto;html=1;entryX=0;entryY=0.5;entryDx=0;entryDy=0;exitX=0.997;exitY=0.216;exitDx=0;exitDy=0;exitPerimeter=0;fontFamily=Courier New;fontSize=20;labelBorderColor=none;strokeWidth=4;fontStyle=1" parent="1" source="z2O95b-8UDkkQNOVp0Xu-6" target="z2O95b-8UDkkQNOVp0Xu-4" edge="1">
          <mxGeometry relative="1" as="geometry" />
        </mxCell>
        <mxCell id="z2O95b-8UDkkQNOVp0Xu-57" style="edgeStyle=orthogonalEdgeStyle;rounded=0;orthogonalLoop=1;jettySize=auto;html=1;entryX=0;entryY=0.5;entryDx=0;entryDy=0;exitX=1.003;exitY=0.781;exitDx=0;exitDy=0;exitPerimeter=0;fontFamily=Courier New;fontSize=20;labelBorderColor=none;strokeWidth=4;fontStyle=1" parent="1" source="z2O95b-8UDkkQNOVp0Xu-6" target="z2O95b-8UDkkQNOVp0Xu-8" edge="1">
          <mxGeometry relative="1" as="geometry" />
        </mxCell>
        <mxCell id="z2O95b-8UDkkQNOVp0Xu-6" value="Scoreboard" style="rounded=1;whiteSpace=wrap;html=1;fontSize=20;fontFamily=Courier New;labelBorderColor=none;strokeWidth=4;fontStyle=1" parent="1" vertex="1">
          <mxGeometry x="260" y="337" width="150" height="324" as="geometry" />
        </mxCell>
        <mxCell id="z2O95b-8UDkkQNOVp0Xu-54" style="edgeStyle=orthogonalEdgeStyle;rounded=0;orthogonalLoop=1;jettySize=auto;html=1;entryX=0.811;entryY=0.986;entryDx=0;entryDy=0;entryPerimeter=0;fontFamily=Courier New;fontSize=20;labelBorderColor=none;strokeWidth=4;fontStyle=1" parent="1" source="z2O95b-8UDkkQNOVp0Xu-8" target="z2O95b-8UDkkQNOVp0Xu-3" edge="1">
          <mxGeometry relative="1" as="geometry" />
        </mxCell>
        <mxCell id="z2O95b-8UDkkQNOVp0Xu-8" value="VCU" style="rounded=1;whiteSpace=wrap;html=1;fontSize=20;fontFamily=Courier New;labelBorderColor=none;strokeWidth=4;fontStyle=1" parent="1" vertex="1">
          <mxGeometry x="466" y="520" width="170" height="140" as="geometry" />
        </mxCell>
        <mxCell id="z2O95b-8UDkkQNOVp0Xu-47" value="" style="group;fontFamily=Courier New;fontSize=20;labelBorderColor=none;fontStyle=1" parent="1" vertex="1" connectable="0">
          <mxGeometry x="799" y="304.5" width="215" height="389" as="geometry" />
        </mxCell>
        <mxCell id="z2O95b-8UDkkQNOVp0Xu-2" value="" style="rounded=1;whiteSpace=wrap;html=1;fontSize=20;fontFamily=Courier New;arcSize=5;labelBorderColor=none;strokeWidth=4;fontStyle=1" parent="z2O95b-8UDkkQNOVp0Xu-47" vertex="1">
          <mxGeometry y="-4" width="215" height="389" as="geometry" />
        </mxCell>
        <mxCell id="z2O95b-8UDkkQNOVp0Xu-15" value="" style="rounded=1;whiteSpace=wrap;html=1;fontFamily=Courier New;fontSize=20;labelBorderColor=none;strokeWidth=4;fontStyle=1" parent="z2O95b-8UDkkQNOVp0Xu-47" vertex="1">
          <mxGeometry x="21.078431372549016" y="25" width="31.61764705882353" height="30" as="geometry" />
        </mxCell>
        <mxCell id="z2O95b-8UDkkQNOVp0Xu-16" value="" style="rounded=1;whiteSpace=wrap;html=1;fontFamily=Courier New;fontSize=20;labelBorderColor=none;strokeWidth=4;fontStyle=1" parent="z2O95b-8UDkkQNOVp0Xu-47" vertex="1">
          <mxGeometry x="68.50490196078431" y="25" width="31.61764705882353" height="30" as="geometry" />
        </mxCell>
        <mxCell id="z2O95b-8UDkkQNOVp0Xu-17" value="" style="rounded=1;whiteSpace=wrap;html=1;fontFamily=Courier New;fontSize=20;labelBorderColor=none;strokeWidth=4;fontStyle=1" parent="z2O95b-8UDkkQNOVp0Xu-47" vertex="1">
          <mxGeometry x="115.9313725490196" y="25" width="31.61764705882353" height="30" as="geometry" />
        </mxCell>
        <mxCell id="z2O95b-8UDkkQNOVp0Xu-18" value="" style="rounded=1;whiteSpace=wrap;html=1;fontFamily=Courier New;fontSize=20;labelBorderColor=none;strokeWidth=4;fontStyle=1" parent="z2O95b-8UDkkQNOVp0Xu-47" vertex="1">
          <mxGeometry x="163.3578431372549" y="25" width="31.61764705882353" height="30" as="geometry" />
        </mxCell>
        <mxCell id="z2O95b-8UDkkQNOVp0Xu-19" value="" style="rounded=1;whiteSpace=wrap;html=1;fontFamily=Courier New;fontSize=20;labelBorderColor=none;strokeWidth=4;fontStyle=1" parent="z2O95b-8UDkkQNOVp0Xu-47" vertex="1">
          <mxGeometry x="21.078431372549016" y="70" width="31.61764705882353" height="30" as="geometry" />
        </mxCell>
        <mxCell id="z2O95b-8UDkkQNOVp0Xu-20" value="" style="rounded=1;whiteSpace=wrap;html=1;fontFamily=Courier New;fontSize=20;labelBorderColor=none;strokeWidth=4;fontStyle=1" parent="z2O95b-8UDkkQNOVp0Xu-47" vertex="1">
          <mxGeometry x="68.50490196078431" y="70" width="31.61764705882353" height="30" as="geometry" />
        </mxCell>
        <mxCell id="z2O95b-8UDkkQNOVp0Xu-21" value="" style="rounded=1;whiteSpace=wrap;html=1;fontFamily=Courier New;fontSize=20;labelBorderColor=none;strokeWidth=4;fontStyle=1" parent="z2O95b-8UDkkQNOVp0Xu-47" vertex="1">
          <mxGeometry x="115.9313725490196" y="70" width="31.61764705882353" height="30" as="geometry" />
        </mxCell>
        <mxCell id="z2O95b-8UDkkQNOVp0Xu-22" value="" style="rounded=1;whiteSpace=wrap;html=1;fontFamily=Courier New;fontSize=20;labelBorderColor=none;strokeWidth=4;fontStyle=1" parent="z2O95b-8UDkkQNOVp0Xu-47" vertex="1">
          <mxGeometry x="163.3578431372549" y="70" width="31.61764705882353" height="30" as="geometry" />
        </mxCell>
        <mxCell id="z2O95b-8UDkkQNOVp0Xu-23" value="" style="rounded=1;whiteSpace=wrap;html=1;fontFamily=Courier New;fontSize=20;labelBorderColor=none;strokeWidth=4;fontStyle=1" parent="z2O95b-8UDkkQNOVp0Xu-47" vertex="1">
          <mxGeometry x="21.078431372549016" y="115" width="31.61764705882353" height="30" as="geometry" />
        </mxCell>
        <mxCell id="z2O95b-8UDkkQNOVp0Xu-24" value="" style="rounded=1;whiteSpace=wrap;html=1;fontFamily=Courier New;fontSize=20;labelBorderColor=none;strokeWidth=4;fontStyle=1" parent="z2O95b-8UDkkQNOVp0Xu-47" vertex="1">
          <mxGeometry x="68.50490196078431" y="115" width="31.61764705882353" height="30" as="geometry" />
        </mxCell>
        <mxCell id="z2O95b-8UDkkQNOVp0Xu-25" value="" style="rounded=1;whiteSpace=wrap;html=1;fontFamily=Courier New;fontSize=20;labelBorderColor=none;strokeWidth=4;fontStyle=1" parent="z2O95b-8UDkkQNOVp0Xu-47" vertex="1">
          <mxGeometry x="115.9313725490196" y="115" width="31.61764705882353" height="30" as="geometry" />
        </mxCell>
        <mxCell id="z2O95b-8UDkkQNOVp0Xu-26" value="" style="rounded=1;whiteSpace=wrap;html=1;fontFamily=Courier New;fontSize=20;labelBorderColor=none;strokeWidth=4;fontStyle=1" parent="z2O95b-8UDkkQNOVp0Xu-47" vertex="1">
          <mxGeometry x="163.3578431372549" y="115" width="31.61764705882353" height="30" as="geometry" />
        </mxCell>
        <mxCell id="z2O95b-8UDkkQNOVp0Xu-27" value="" style="rounded=1;whiteSpace=wrap;html=1;fontFamily=Courier New;fontSize=20;labelBorderColor=none;strokeWidth=4;fontStyle=1" parent="z2O95b-8UDkkQNOVp0Xu-47" vertex="1">
          <mxGeometry x="21.078431372549016" y="159" width="31.61764705882353" height="30" as="geometry" />
        </mxCell>
        <mxCell id="z2O95b-8UDkkQNOVp0Xu-28" value="" style="rounded=1;whiteSpace=wrap;html=1;fontFamily=Courier New;fontSize=20;labelBorderColor=none;strokeWidth=4;fontStyle=1" parent="z2O95b-8UDkkQNOVp0Xu-47" vertex="1">
          <mxGeometry x="68.50490196078431" y="159" width="31.61764705882353" height="30" as="geometry" />
        </mxCell>
        <mxCell id="z2O95b-8UDkkQNOVp0Xu-29" value="" style="rounded=1;whiteSpace=wrap;html=1;fontFamily=Courier New;fontSize=20;labelBorderColor=none;strokeWidth=4;fontStyle=1" parent="z2O95b-8UDkkQNOVp0Xu-47" vertex="1">
          <mxGeometry x="115.9313725490196" y="159" width="31.61764705882353" height="30" as="geometry" />
        </mxCell>
        <mxCell id="z2O95b-8UDkkQNOVp0Xu-30" value="" style="rounded=1;whiteSpace=wrap;html=1;fontFamily=Courier New;fontSize=20;labelBorderColor=none;strokeWidth=4;fontStyle=1" parent="z2O95b-8UDkkQNOVp0Xu-47" vertex="1">
          <mxGeometry x="163.3578431372549" y="159" width="31.61764705882353" height="30" as="geometry" />
        </mxCell>
        <mxCell id="z2O95b-8UDkkQNOVp0Xu-31" value="" style="rounded=1;whiteSpace=wrap;html=1;fontFamily=Courier New;fontSize=20;labelBorderColor=none;strokeWidth=4;fontStyle=1" parent="z2O95b-8UDkkQNOVp0Xu-47" vertex="1">
          <mxGeometry x="21.078431372549016" y="203" width="31.61764705882353" height="30" as="geometry" />
        </mxCell>
        <mxCell id="z2O95b-8UDkkQNOVp0Xu-32" value="" style="rounded=1;whiteSpace=wrap;html=1;fontFamily=Courier New;fontSize=20;labelBorderColor=none;strokeWidth=4;fontStyle=1" parent="z2O95b-8UDkkQNOVp0Xu-47" vertex="1">
          <mxGeometry x="68.50490196078431" y="203" width="31.61764705882353" height="30" as="geometry" />
        </mxCell>
        <mxCell id="z2O95b-8UDkkQNOVp0Xu-33" value="" style="rounded=1;whiteSpace=wrap;html=1;fontFamily=Courier New;fontSize=20;labelBorderColor=none;strokeWidth=4;fontStyle=1" parent="z2O95b-8UDkkQNOVp0Xu-47" vertex="1">
          <mxGeometry x="115.9313725490196" y="203" width="31.61764705882353" height="30" as="geometry" />
        </mxCell>
        <mxCell id="z2O95b-8UDkkQNOVp0Xu-34" value="" style="rounded=1;whiteSpace=wrap;html=1;fontFamily=Courier New;fontSize=20;labelBorderColor=none;strokeWidth=4;fontStyle=1" parent="z2O95b-8UDkkQNOVp0Xu-47" vertex="1">
          <mxGeometry x="163.3578431372549" y="203" width="31.61764705882353" height="30" as="geometry" />
        </mxCell>
        <mxCell id="z2O95b-8UDkkQNOVp0Xu-35" value="" style="rounded=1;whiteSpace=wrap;html=1;fontFamily=Courier New;fontSize=20;labelBorderColor=none;strokeWidth=4;fontStyle=1" parent="z2O95b-8UDkkQNOVp0Xu-47" vertex="1">
          <mxGeometry x="21.078431372549016" y="249" width="31.61764705882353" height="30" as="geometry" />
        </mxCell>
        <mxCell id="z2O95b-8UDkkQNOVp0Xu-36" value="" style="rounded=1;whiteSpace=wrap;html=1;fontFamily=Courier New;fontSize=20;labelBorderColor=none;strokeWidth=4;fontStyle=1" parent="z2O95b-8UDkkQNOVp0Xu-47" vertex="1">
          <mxGeometry x="68.50490196078431" y="249" width="31.61764705882353" height="30" as="geometry" />
        </mxCell>
        <mxCell id="z2O95b-8UDkkQNOVp0Xu-37" value="" style="rounded=1;whiteSpace=wrap;html=1;fontFamily=Courier New;fontSize=20;labelBorderColor=none;strokeWidth=4;fontStyle=1" parent="z2O95b-8UDkkQNOVp0Xu-47" vertex="1">
          <mxGeometry x="115.9313725490196" y="249" width="31.61764705882353" height="30" as="geometry" />
        </mxCell>
        <mxCell id="z2O95b-8UDkkQNOVp0Xu-38" value="" style="rounded=1;whiteSpace=wrap;html=1;fontFamily=Courier New;fontSize=20;labelBorderColor=none;strokeWidth=4;fontStyle=1" parent="z2O95b-8UDkkQNOVp0Xu-47" vertex="1">
          <mxGeometry x="163.3578431372549" y="249" width="31.61764705882353" height="30" as="geometry" />
        </mxCell>
        <mxCell id="z2O95b-8UDkkQNOVp0Xu-39" value="" style="rounded=1;whiteSpace=wrap;html=1;fontFamily=Courier New;fontSize=20;labelBorderColor=none;strokeWidth=4;fontStyle=1" parent="z2O95b-8UDkkQNOVp0Xu-47" vertex="1">
          <mxGeometry x="21.078431372549016" y="293" width="31.61764705882353" height="30" as="geometry" />
        </mxCell>
        <mxCell id="z2O95b-8UDkkQNOVp0Xu-40" value="" style="rounded=1;whiteSpace=wrap;html=1;fontFamily=Courier New;fontSize=20;labelBorderColor=none;strokeWidth=4;fontStyle=1" parent="z2O95b-8UDkkQNOVp0Xu-47" vertex="1">
          <mxGeometry x="68.50490196078431" y="293" width="31.61764705882353" height="30" as="geometry" />
        </mxCell>
        <mxCell id="z2O95b-8UDkkQNOVp0Xu-41" value="" style="rounded=1;whiteSpace=wrap;html=1;fontFamily=Courier New;fontSize=20;labelBorderColor=none;strokeWidth=4;fontStyle=1" parent="z2O95b-8UDkkQNOVp0Xu-47" vertex="1">
          <mxGeometry x="115.9313725490196" y="293" width="31.61764705882353" height="30" as="geometry" />
        </mxCell>
        <mxCell id="z2O95b-8UDkkQNOVp0Xu-42" value="" style="rounded=1;whiteSpace=wrap;html=1;fontFamily=Courier New;fontSize=20;labelBorderColor=none;strokeWidth=4;fontStyle=1" parent="z2O95b-8UDkkQNOVp0Xu-47" vertex="1">
          <mxGeometry x="163.3578431372549" y="293" width="31.61764705882353" height="30" as="geometry" />
        </mxCell>
        <mxCell id="z2O95b-8UDkkQNOVp0Xu-43" value="" style="rounded=1;whiteSpace=wrap;html=1;fontFamily=Courier New;fontSize=20;labelBorderColor=none;strokeWidth=4;fontStyle=1" parent="z2O95b-8UDkkQNOVp0Xu-47" vertex="1">
          <mxGeometry x="21.078431372549016" y="337" width="31.61764705882353" height="30" as="geometry" />
        </mxCell>
        <mxCell id="z2O95b-8UDkkQNOVp0Xu-44" value="" style="rounded=1;whiteSpace=wrap;html=1;fontFamily=Courier New;fontSize=20;labelBorderColor=none;strokeWidth=4;fontStyle=1" parent="z2O95b-8UDkkQNOVp0Xu-47" vertex="1">
          <mxGeometry x="68.50490196078431" y="337" width="31.61764705882353" height="30" as="geometry" />
        </mxCell>
        <mxCell id="z2O95b-8UDkkQNOVp0Xu-45" value="" style="rounded=1;whiteSpace=wrap;html=1;fontFamily=Courier New;fontSize=20;labelBorderColor=none;strokeWidth=4;fontStyle=1" parent="z2O95b-8UDkkQNOVp0Xu-47" vertex="1">
          <mxGeometry x="115.9313725490196" y="337" width="31.61764705882353" height="30" as="geometry" />
        </mxCell>
        <mxCell id="z2O95b-8UDkkQNOVp0Xu-46" value="" style="rounded=1;whiteSpace=wrap;html=1;fontFamily=Courier New;fontSize=20;labelBorderColor=none;strokeWidth=4;fontStyle=1" parent="z2O95b-8UDkkQNOVp0Xu-47" vertex="1">
          <mxGeometry x="163.3578431372549" y="337" width="31.61764705882353" height="30" as="geometry" />
        </mxCell>
        <mxCell id="z2O95b-8UDkkQNOVp0Xu-58" value="CSB" style="text;html=1;align=center;verticalAlign=middle;resizable=0;points=[];autosize=1;strokeColor=none;fillColor=none;fontFamily=Courier New;fontSize=20;labelBorderColor=none;fontStyle=1" parent="z2O95b-8UDkkQNOVp0Xu-47" vertex="1">
          <mxGeometry x="83" y="-10" width="55" height="40" as="geometry" />
        </mxCell>
        <mxCell id="z2O95b-8UDkkQNOVp0Xu-62" value="" style="endArrow=classic;html=1;rounded=0;entryX=0.006;entryY=0.365;entryDx=0;entryDy=0;entryPerimeter=0;exitX=0.037;exitY=0.413;exitDx=0;exitDy=0;exitPerimeter=0;fontFamily=Courier New;fontSize=20;labelBorderColor=none;strokeWidth=4;fontStyle=1" parent="1" edge="1">
          <mxGeometry width="50" height="50" relative="1" as="geometry">
            <mxPoint x="163.36199999999994" y="498.733" as="sourcePoint" />
            <mxPoint x="260.0000000000001" y="498.58" as="targetPoint" />
          </mxGeometry>
        </mxCell>
        <mxCell id="z2O95b-8UDkkQNOVp0Xu-63" value="Instruction" style="edgeLabel;html=1;align=center;verticalAlign=middle;resizable=0;points=[];fontFamily=Courier New;fontSize=20;labelBorderColor=none;fontStyle=1" parent="z2O95b-8UDkkQNOVp0Xu-62" vertex="1" connectable="0">
          <mxGeometry x="-0.2971" relative="1" as="geometry">
            <mxPoint x="-32" y="-16" as="offset" />
          </mxGeometry>
        </mxCell>
        <mxCell id="Gp5iSERbQgPD30PwmQMo-1" value="Arbitrator" style="shape=trapezoid;perimeter=trapezoidPerimeter;whiteSpace=wrap;html=1;fixedSize=1;rotation=90;size=60;fontSize=20;fontFamily=Courier New;labelBorderColor=none;strokeWidth=4;fontStyle=1" parent="1" vertex="1">
          <mxGeometry x="1198" y="390" width="421" height="137" as="geometry" />
        </mxCell>
        <mxCell id="Gp5iSERbQgPD30PwmQMo-10" value="" style="edgeStyle=orthogonalEdgeStyle;rounded=0;orthogonalLoop=1;jettySize=auto;html=1;fontFamily=Courier New;" parent="1" source="Gp5iSERbQgPD30PwmQMo-2" target="Gp5iSERbQgPD30PwmQMo-7" edge="1">
          <mxGeometry relative="1" as="geometry" />
        </mxCell>
        <mxCell id="Gp5iSERbQgPD30PwmQMo-12" style="edgeStyle=orthogonalEdgeStyle;rounded=0;orthogonalLoop=1;jettySize=auto;html=1;entryX=0.5;entryY=0;entryDx=0;entryDy=0;fontFamily=Courier New;" parent="1" source="Gp5iSERbQgPD30PwmQMo-2" target="Gp5iSERbQgPD30PwmQMo-5" edge="1">
          <mxGeometry relative="1" as="geometry" />
        </mxCell>
        <mxCell id="Gp5iSERbQgPD30PwmQMo-2" value="VCU" style="rounded=1;whiteSpace=wrap;html=1;fontSize=40;fontFamily=Courier New;labelBorderColor=none;strokeWidth=4;fontStyle=1" parent="1" vertex="1">
          <mxGeometry x="1152" y="1275" width="246" height="185" as="geometry" />
        </mxCell>
        <mxCell id="Gp5iSERbQgPD30PwmQMo-8" value="" style="edgeStyle=orthogonalEdgeStyle;rounded=0;orthogonalLoop=1;jettySize=auto;html=1;fontFamily=Courier New;" parent="1" source="Gp5iSERbQgPD30PwmQMo-5" target="Gp5iSERbQgPD30PwmQMo-2" edge="1">
          <mxGeometry relative="1" as="geometry" />
        </mxCell>
        <mxCell id="Gp5iSERbQgPD30PwmQMo-5" value="Memory" style="rounded=1;whiteSpace=wrap;html=1;fontSize=18;fontFamily=Courier New;strokeWidth=4;" parent="1" vertex="1">
          <mxGeometry x="1289" y="1495" width="105" height="63" as="geometry" />
        </mxCell>
        <mxCell id="Gp5iSERbQgPD30PwmQMo-9" value="" style="edgeStyle=orthogonalEdgeStyle;rounded=0;orthogonalLoop=1;jettySize=auto;html=1;fontFamily=Courier New;" parent="1" source="Gp5iSERbQgPD30PwmQMo-7" target="Gp5iSERbQgPD30PwmQMo-2" edge="1">
          <mxGeometry relative="1" as="geometry" />
        </mxCell>
        <mxCell id="Gp5iSERbQgPD30PwmQMo-7" value="Memory" style="rounded=1;whiteSpace=wrap;html=1;fontSize=18;fontFamily=Courier New;strokeWidth=4;" parent="1" vertex="1">
          <mxGeometry x="1154" y="1495" width="105" height="63" as="geometry" />
        </mxCell>
        <mxCell id="Gp5iSERbQgPD30PwmQMo-13" value="" style="rounded=1;whiteSpace=wrap;html=1;fontSize=40;fontFamily=Courier New;labelBorderColor=none;strokeWidth=4;fontStyle=1" parent="1" vertex="1">
          <mxGeometry x="426" y="827" width="246" height="185" as="geometry" />
        </mxCell>
        <mxCell id="Gp5iSERbQgPD30PwmQMo-14" value="Memory" style="rounded=1;whiteSpace=wrap;html=1;fontSize=18;fontFamily=Courier New;strokeWidth=4;fontStyle=1" parent="1" vertex="1">
          <mxGeometry x="538" y="855" width="105" height="63" as="geometry" />
        </mxCell>
        <mxCell id="Gp5iSERbQgPD30PwmQMo-17" value="" style="group;fontFamily=Comic Sans MS;fontSize=20;labelBorderColor=none;fontStyle=1" parent="1" vertex="1" connectable="0">
          <mxGeometry x="250" y="1894" width="215" height="389" as="geometry" />
        </mxCell>
        <mxCell id="Gp5iSERbQgPD30PwmQMo-18" value="" style="rounded=1;whiteSpace=wrap;html=1;fontSize=20;fontFamily=Comic Sans MS;arcSize=5;labelBorderColor=none;strokeWidth=4;fontStyle=1" parent="Gp5iSERbQgPD30PwmQMo-17" vertex="1">
          <mxGeometry y="-4" width="215" height="389" as="geometry" />
        </mxCell>
        <mxCell id="Gp5iSERbQgPD30PwmQMo-19" value="" style="rounded=1;whiteSpace=wrap;html=1;fontFamily=Comic Sans MS;fontSize=20;labelBorderColor=none;strokeWidth=4;fontStyle=1" parent="Gp5iSERbQgPD30PwmQMo-17" vertex="1">
          <mxGeometry x="21.078431372549016" y="25" width="31.61764705882353" height="30" as="geometry" />
        </mxCell>
        <mxCell id="Gp5iSERbQgPD30PwmQMo-20" value="" style="rounded=1;whiteSpace=wrap;html=1;fontFamily=Comic Sans MS;fontSize=20;labelBorderColor=none;strokeWidth=4;fontStyle=1" parent="Gp5iSERbQgPD30PwmQMo-17" vertex="1">
          <mxGeometry x="68.50490196078431" y="25" width="31.61764705882353" height="30" as="geometry" />
        </mxCell>
        <mxCell id="Gp5iSERbQgPD30PwmQMo-21" value="" style="rounded=1;whiteSpace=wrap;html=1;fontFamily=Comic Sans MS;fontSize=20;labelBorderColor=none;strokeWidth=4;fontStyle=1" parent="Gp5iSERbQgPD30PwmQMo-17" vertex="1">
          <mxGeometry x="115.9313725490196" y="25" width="31.61764705882353" height="30" as="geometry" />
        </mxCell>
        <mxCell id="Gp5iSERbQgPD30PwmQMo-22" value="" style="rounded=1;whiteSpace=wrap;html=1;fontFamily=Comic Sans MS;fontSize=20;labelBorderColor=none;strokeWidth=4;fontStyle=1" parent="Gp5iSERbQgPD30PwmQMo-17" vertex="1">
          <mxGeometry x="163.3578431372549" y="25" width="31.61764705882353" height="30" as="geometry" />
        </mxCell>
        <mxCell id="Gp5iSERbQgPD30PwmQMo-23" value="" style="rounded=1;whiteSpace=wrap;html=1;fontFamily=Comic Sans MS;fontSize=20;labelBorderColor=none;strokeWidth=4;fontStyle=1" parent="Gp5iSERbQgPD30PwmQMo-17" vertex="1">
          <mxGeometry x="21.078431372549016" y="70" width="31.61764705882353" height="30" as="geometry" />
        </mxCell>
        <mxCell id="Gp5iSERbQgPD30PwmQMo-24" value="" style="rounded=1;whiteSpace=wrap;html=1;fontFamily=Comic Sans MS;fontSize=20;labelBorderColor=none;strokeWidth=4;fontStyle=1" parent="Gp5iSERbQgPD30PwmQMo-17" vertex="1">
          <mxGeometry x="68.50490196078431" y="70" width="31.61764705882353" height="30" as="geometry" />
        </mxCell>
        <mxCell id="Gp5iSERbQgPD30PwmQMo-25" value="" style="rounded=1;whiteSpace=wrap;html=1;fontFamily=Comic Sans MS;fontSize=20;labelBorderColor=none;strokeWidth=4;fontStyle=1" parent="Gp5iSERbQgPD30PwmQMo-17" vertex="1">
          <mxGeometry x="115.9313725490196" y="70" width="31.61764705882353" height="30" as="geometry" />
        </mxCell>
        <mxCell id="Gp5iSERbQgPD30PwmQMo-26" value="" style="rounded=1;whiteSpace=wrap;html=1;fontFamily=Comic Sans MS;fontSize=20;labelBorderColor=none;strokeWidth=4;fontStyle=1" parent="Gp5iSERbQgPD30PwmQMo-17" vertex="1">
          <mxGeometry x="163.3578431372549" y="70" width="31.61764705882353" height="30" as="geometry" />
        </mxCell>
        <mxCell id="Gp5iSERbQgPD30PwmQMo-27" value="" style="rounded=1;whiteSpace=wrap;html=1;fontFamily=Comic Sans MS;fontSize=20;labelBorderColor=none;strokeWidth=4;fontStyle=1" parent="Gp5iSERbQgPD30PwmQMo-17" vertex="1">
          <mxGeometry x="21.078431372549016" y="115" width="31.61764705882353" height="30" as="geometry" />
        </mxCell>
        <mxCell id="Gp5iSERbQgPD30PwmQMo-28" value="" style="rounded=1;whiteSpace=wrap;html=1;fontFamily=Comic Sans MS;fontSize=20;labelBorderColor=none;strokeWidth=4;fontStyle=1" parent="Gp5iSERbQgPD30PwmQMo-17" vertex="1">
          <mxGeometry x="68.50490196078431" y="115" width="31.61764705882353" height="30" as="geometry" />
        </mxCell>
        <mxCell id="Gp5iSERbQgPD30PwmQMo-29" value="" style="rounded=1;whiteSpace=wrap;html=1;fontFamily=Comic Sans MS;fontSize=20;labelBorderColor=none;strokeWidth=4;fontStyle=1" parent="Gp5iSERbQgPD30PwmQMo-17" vertex="1">
          <mxGeometry x="115.9313725490196" y="115" width="31.61764705882353" height="30" as="geometry" />
        </mxCell>
        <mxCell id="Gp5iSERbQgPD30PwmQMo-30" value="" style="rounded=1;whiteSpace=wrap;html=1;fontFamily=Comic Sans MS;fontSize=20;labelBorderColor=none;strokeWidth=4;fontStyle=1" parent="Gp5iSERbQgPD30PwmQMo-17" vertex="1">
          <mxGeometry x="163.3578431372549" y="115" width="31.61764705882353" height="30" as="geometry" />
        </mxCell>
        <mxCell id="Gp5iSERbQgPD30PwmQMo-31" value="" style="rounded=1;whiteSpace=wrap;html=1;fontFamily=Comic Sans MS;fontSize=20;labelBorderColor=none;strokeWidth=4;fontStyle=1" parent="Gp5iSERbQgPD30PwmQMo-17" vertex="1">
          <mxGeometry x="21.078431372549016" y="159" width="31.61764705882353" height="30" as="geometry" />
        </mxCell>
        <mxCell id="Gp5iSERbQgPD30PwmQMo-32" value="" style="rounded=1;whiteSpace=wrap;html=1;fontFamily=Comic Sans MS;fontSize=20;labelBorderColor=none;strokeWidth=4;fontStyle=1" parent="Gp5iSERbQgPD30PwmQMo-17" vertex="1">
          <mxGeometry x="68.50490196078431" y="159" width="31.61764705882353" height="30" as="geometry" />
        </mxCell>
        <mxCell id="Gp5iSERbQgPD30PwmQMo-33" value="" style="rounded=1;whiteSpace=wrap;html=1;fontFamily=Comic Sans MS;fontSize=20;labelBorderColor=none;strokeWidth=4;fontStyle=1" parent="Gp5iSERbQgPD30PwmQMo-17" vertex="1">
          <mxGeometry x="115.9313725490196" y="159" width="31.61764705882353" height="30" as="geometry" />
        </mxCell>
        <mxCell id="Gp5iSERbQgPD30PwmQMo-34" value="" style="rounded=1;whiteSpace=wrap;html=1;fontFamily=Comic Sans MS;fontSize=20;labelBorderColor=none;strokeWidth=4;fontStyle=1" parent="Gp5iSERbQgPD30PwmQMo-17" vertex="1">
          <mxGeometry x="163.3578431372549" y="159" width="31.61764705882353" height="30" as="geometry" />
        </mxCell>
        <mxCell id="Gp5iSERbQgPD30PwmQMo-35" value="" style="rounded=1;whiteSpace=wrap;html=1;fontFamily=Comic Sans MS;fontSize=20;labelBorderColor=none;strokeWidth=4;fontStyle=1" parent="Gp5iSERbQgPD30PwmQMo-17" vertex="1">
          <mxGeometry x="21.078431372549016" y="203" width="31.61764705882353" height="30" as="geometry" />
        </mxCell>
        <mxCell id="Gp5iSERbQgPD30PwmQMo-36" value="" style="rounded=1;whiteSpace=wrap;html=1;fontFamily=Comic Sans MS;fontSize=20;labelBorderColor=none;strokeWidth=4;fontStyle=1" parent="Gp5iSERbQgPD30PwmQMo-17" vertex="1">
          <mxGeometry x="68.50490196078431" y="203" width="31.61764705882353" height="30" as="geometry" />
        </mxCell>
        <mxCell id="Gp5iSERbQgPD30PwmQMo-37" value="" style="rounded=1;whiteSpace=wrap;html=1;fontFamily=Comic Sans MS;fontSize=20;labelBorderColor=none;strokeWidth=4;fontStyle=1" parent="Gp5iSERbQgPD30PwmQMo-17" vertex="1">
          <mxGeometry x="115.9313725490196" y="203" width="31.61764705882353" height="30" as="geometry" />
        </mxCell>
        <mxCell id="Gp5iSERbQgPD30PwmQMo-38" value="" style="rounded=1;whiteSpace=wrap;html=1;fontFamily=Comic Sans MS;fontSize=20;labelBorderColor=none;strokeWidth=4;fontStyle=1" parent="Gp5iSERbQgPD30PwmQMo-17" vertex="1">
          <mxGeometry x="163.3578431372549" y="203" width="31.61764705882353" height="30" as="geometry" />
        </mxCell>
        <mxCell id="Gp5iSERbQgPD30PwmQMo-39" value="" style="rounded=1;whiteSpace=wrap;html=1;fontFamily=Comic Sans MS;fontSize=20;labelBorderColor=none;strokeWidth=4;fontStyle=1" parent="Gp5iSERbQgPD30PwmQMo-17" vertex="1">
          <mxGeometry x="21.078431372549016" y="249" width="31.61764705882353" height="30" as="geometry" />
        </mxCell>
        <mxCell id="Gp5iSERbQgPD30PwmQMo-40" value="" style="rounded=1;whiteSpace=wrap;html=1;fontFamily=Comic Sans MS;fontSize=20;labelBorderColor=none;strokeWidth=4;fontStyle=1" parent="Gp5iSERbQgPD30PwmQMo-17" vertex="1">
          <mxGeometry x="68.50490196078431" y="249" width="31.61764705882353" height="30" as="geometry" />
        </mxCell>
        <mxCell id="Gp5iSERbQgPD30PwmQMo-41" value="" style="rounded=1;whiteSpace=wrap;html=1;fontFamily=Comic Sans MS;fontSize=20;labelBorderColor=none;strokeWidth=4;fontStyle=1" parent="Gp5iSERbQgPD30PwmQMo-17" vertex="1">
          <mxGeometry x="115.9313725490196" y="249" width="31.61764705882353" height="30" as="geometry" />
        </mxCell>
        <mxCell id="Gp5iSERbQgPD30PwmQMo-42" value="" style="rounded=1;whiteSpace=wrap;html=1;fontFamily=Comic Sans MS;fontSize=20;labelBorderColor=none;strokeWidth=4;fontStyle=1" parent="Gp5iSERbQgPD30PwmQMo-17" vertex="1">
          <mxGeometry x="163.3578431372549" y="249" width="31.61764705882353" height="30" as="geometry" />
        </mxCell>
        <mxCell id="Gp5iSERbQgPD30PwmQMo-43" value="" style="rounded=1;whiteSpace=wrap;html=1;fontFamily=Comic Sans MS;fontSize=20;labelBorderColor=none;strokeWidth=4;fontStyle=1" parent="Gp5iSERbQgPD30PwmQMo-17" vertex="1">
          <mxGeometry x="21.078431372549016" y="293" width="31.61764705882353" height="30" as="geometry" />
        </mxCell>
        <mxCell id="Gp5iSERbQgPD30PwmQMo-44" value="" style="rounded=1;whiteSpace=wrap;html=1;fontFamily=Comic Sans MS;fontSize=20;labelBorderColor=none;strokeWidth=4;fontStyle=1" parent="Gp5iSERbQgPD30PwmQMo-17" vertex="1">
          <mxGeometry x="68.50490196078431" y="293" width="31.61764705882353" height="30" as="geometry" />
        </mxCell>
        <mxCell id="Gp5iSERbQgPD30PwmQMo-45" value="" style="rounded=1;whiteSpace=wrap;html=1;fontFamily=Comic Sans MS;fontSize=20;labelBorderColor=none;strokeWidth=4;fontStyle=1" parent="Gp5iSERbQgPD30PwmQMo-17" vertex="1">
          <mxGeometry x="115.9313725490196" y="293" width="31.61764705882353" height="30" as="geometry" />
        </mxCell>
        <mxCell id="Gp5iSERbQgPD30PwmQMo-46" value="" style="rounded=1;whiteSpace=wrap;html=1;fontFamily=Comic Sans MS;fontSize=20;labelBorderColor=none;strokeWidth=4;fontStyle=1" parent="Gp5iSERbQgPD30PwmQMo-17" vertex="1">
          <mxGeometry x="163.3578431372549" y="293" width="31.61764705882353" height="30" as="geometry" />
        </mxCell>
        <mxCell id="Gp5iSERbQgPD30PwmQMo-47" value="" style="rounded=1;whiteSpace=wrap;html=1;fontFamily=Comic Sans MS;fontSize=20;labelBorderColor=none;strokeWidth=4;fontStyle=1" parent="Gp5iSERbQgPD30PwmQMo-17" vertex="1">
          <mxGeometry x="21.078431372549016" y="337" width="31.61764705882353" height="30" as="geometry" />
        </mxCell>
        <mxCell id="Gp5iSERbQgPD30PwmQMo-48" value="" style="rounded=1;whiteSpace=wrap;html=1;fontFamily=Comic Sans MS;fontSize=20;labelBorderColor=none;strokeWidth=4;fontStyle=1" parent="Gp5iSERbQgPD30PwmQMo-17" vertex="1">
          <mxGeometry x="68.50490196078431" y="337" width="31.61764705882353" height="30" as="geometry" />
        </mxCell>
        <mxCell id="Gp5iSERbQgPD30PwmQMo-49" value="" style="rounded=1;whiteSpace=wrap;html=1;fontFamily=Comic Sans MS;fontSize=20;labelBorderColor=none;strokeWidth=4;fontStyle=1" parent="Gp5iSERbQgPD30PwmQMo-17" vertex="1">
          <mxGeometry x="115.9313725490196" y="337" width="31.61764705882353" height="30" as="geometry" />
        </mxCell>
        <mxCell id="Gp5iSERbQgPD30PwmQMo-50" value="" style="rounded=1;whiteSpace=wrap;html=1;fontFamily=Comic Sans MS;fontSize=20;labelBorderColor=none;strokeWidth=4;fontStyle=1" parent="Gp5iSERbQgPD30PwmQMo-17" vertex="1">
          <mxGeometry x="163.3578431372549" y="337" width="31.61764705882353" height="30" as="geometry" />
        </mxCell>
        <mxCell id="Gp5iSERbQgPD30PwmQMo-51" value="CSB" style="text;html=1;align=center;verticalAlign=middle;resizable=0;points=[];autosize=1;strokeColor=none;fillColor=none;fontFamily=Comic Sans MS;fontSize=20;labelBorderColor=none;fontStyle=1" parent="Gp5iSERbQgPD30PwmQMo-17" vertex="1">
          <mxGeometry x="81" y="-9" width="58" height="37" as="geometry" />
        </mxCell>
        <mxCell id="Gp5iSERbQgPD30PwmQMo-61" value="" style="edgeStyle=orthogonalEdgeStyle;rounded=0;orthogonalLoop=1;jettySize=auto;html=1;strokeWidth=6;fontFamily=Georgia;fontSize=30;" parent="1" source="Gp5iSERbQgPD30PwmQMo-53" target="Gp5iSERbQgPD30PwmQMo-56" edge="1">
          <mxGeometry relative="1" as="geometry" />
        </mxCell>
        <mxCell id="Gp5iSERbQgPD30PwmQMo-53" value="Idle" style="ellipse;whiteSpace=wrap;html=1;aspect=fixed;strokeWidth=4;fontSize=30;fontFamily=Georgia;fontStyle=1" parent="1" vertex="1">
          <mxGeometry x="125" y="1215" width="165" height="165" as="geometry" />
        </mxCell>
        <mxCell id="Gp5iSERbQgPD30PwmQMo-62" value="" style="edgeStyle=orthogonalEdgeStyle;rounded=0;orthogonalLoop=1;jettySize=auto;html=1;strokeWidth=6;fontFamily=Georgia;fontSize=30;" parent="1" source="Gp5iSERbQgPD30PwmQMo-56" target="Gp5iSERbQgPD30PwmQMo-57" edge="1">
          <mxGeometry relative="1" as="geometry" />
        </mxCell>
        <mxCell id="Gp5iSERbQgPD30PwmQMo-56" value="Decode" style="ellipse;whiteSpace=wrap;html=1;aspect=fixed;strokeWidth=4;fontSize=30;fontFamily=Georgia;fontStyle=1" parent="1" vertex="1">
          <mxGeometry x="369" y="1215" width="165" height="165" as="geometry" />
        </mxCell>
        <mxCell id="Gp5iSERbQgPD30PwmQMo-63" value="" style="edgeStyle=orthogonalEdgeStyle;rounded=0;orthogonalLoop=1;jettySize=auto;html=1;strokeWidth=6;fontFamily=Georgia;fontSize=30;" parent="1" source="Gp5iSERbQgPD30PwmQMo-57" target="Gp5iSERbQgPD30PwmQMo-58" edge="1">
          <mxGeometry relative="1" as="geometry" />
        </mxCell>
        <mxCell id="Gp5iSERbQgPD30PwmQMo-57" value="Fetch" style="ellipse;whiteSpace=wrap;html=1;aspect=fixed;strokeWidth=4;fontSize=30;fontFamily=Georgia;fontStyle=1" parent="1" vertex="1">
          <mxGeometry x="369" y="1455" width="165" height="165" as="geometry" />
        </mxCell>
        <mxCell id="Gp5iSERbQgPD30PwmQMo-64" value="" style="edgeStyle=orthogonalEdgeStyle;rounded=0;orthogonalLoop=1;jettySize=auto;html=1;fontFamily=Georgia;fontSize=30;" parent="1" source="Gp5iSERbQgPD30PwmQMo-58" target="Gp5iSERbQgPD30PwmQMo-53" edge="1">
          <mxGeometry relative="1" as="geometry" />
        </mxCell>
        <mxCell id="Gp5iSERbQgPD30PwmQMo-65" value="" style="edgeStyle=orthogonalEdgeStyle;rounded=0;orthogonalLoop=1;jettySize=auto;html=1;strokeWidth=6;fontFamily=Georgia;fontSize=30;" parent="1" source="Gp5iSERbQgPD30PwmQMo-58" target="Gp5iSERbQgPD30PwmQMo-53" edge="1">
          <mxGeometry relative="1" as="geometry" />
        </mxCell>
        <mxCell id="Gp5iSERbQgPD30PwmQMo-58" value="Execute" style="ellipse;whiteSpace=wrap;html=1;aspect=fixed;strokeWidth=4;fontSize=30;fontFamily=Georgia;fontStyle=1" parent="1" vertex="1">
          <mxGeometry x="125" y="1455" width="165" height="165" as="geometry" />
        </mxCell>
        <mxCell id="Gp5iSERbQgPD30PwmQMo-68" value="" style="endArrow=classic;html=1;rounded=0;entryX=0.006;entryY=0.365;entryDx=0;entryDy=0;entryPerimeter=0;exitX=0.037;exitY=0.413;exitDx=0;exitDy=0;exitPerimeter=0;fontFamily=Courier New;fontSize=20;labelBorderColor=none;strokeWidth=4;fontStyle=1" parent="1" edge="1">
          <mxGeometry width="50" height="50" relative="1" as="geometry">
            <mxPoint x="1055.002" y="1360.153" as="sourcePoint" />
            <mxPoint x="1151.64" y="1360" as="targetPoint" />
          </mxGeometry>
        </mxCell>
        <mxCell id="Gp5iSERbQgPD30PwmQMo-69" value="Decoded instruction" style="edgeLabel;html=1;align=center;verticalAlign=middle;resizable=0;points=[];fontFamily=Courier New;fontSize=20;labelBorderColor=none;fontStyle=1" parent="Gp5iSERbQgPD30PwmQMo-68" vertex="1" connectable="0">
          <mxGeometry x="-0.2971" relative="1" as="geometry">
            <mxPoint x="-159" as="offset" />
          </mxGeometry>
        </mxCell>
        <mxCell id="Gp5iSERbQgPD30PwmQMo-70" value="" style="endArrow=classic;html=1;rounded=0;exitX=1.007;exitY=0.461;exitDx=0;exitDy=0;fontFamily=Courier New;fontSize=20;labelBorderColor=none;strokeWidth=4;fontStyle=1;exitPerimeter=0;" parent="1" source="Gp5iSERbQgPD30PwmQMo-2" edge="1">
          <mxGeometry width="50" height="50" relative="1" as="geometry">
            <mxPoint x="1440.002" y="1365.153" as="sourcePoint" />
            <mxPoint x="1495" y="1360" as="targetPoint" />
          </mxGeometry>
        </mxCell>
        <mxCell id="Gp5iSERbQgPD30PwmQMo-71" value="Microoperations" style="edgeLabel;html=1;align=center;verticalAlign=middle;resizable=0;points=[];fontFamily=Courier New;fontSize=20;labelBorderColor=none;fontStyle=1" parent="Gp5iSERbQgPD30PwmQMo-70" vertex="1" connectable="0">
          <mxGeometry x="-0.2971" relative="1" as="geometry">
            <mxPoint x="162" as="offset" />
          </mxGeometry>
        </mxCell>
        <mxCell id="Gp5iSERbQgPD30PwmQMo-73" value="" style="endArrow=classic;html=1;rounded=0;entryX=0.006;entryY=0.365;entryDx=0;entryDy=0;entryPerimeter=0;exitX=0.037;exitY=0.413;exitDx=0;exitDy=0;exitPerimeter=0;fontFamily=Courier New;fontSize=20;labelBorderColor=none;strokeWidth=4;fontStyle=1" parent="1" edge="1">
          <mxGeometry width="50" height="50" relative="1" as="geometry">
            <mxPoint x="320.00199999999995" y="913.153" as="sourcePoint" />
            <mxPoint x="416.6400000000001" y="913" as="targetPoint" />
          </mxGeometry>
        </mxCell>
        <mxCell id="Gp5iSERbQgPD30PwmQMo-74" value="Load/Store" style="edgeLabel;html=1;align=center;verticalAlign=middle;resizable=0;points=[];fontFamily=Courier New;fontSize=20;labelBorderColor=none;fontStyle=1" parent="Gp5iSERbQgPD30PwmQMo-73" vertex="1" connectable="0">
          <mxGeometry x="-0.2971" relative="1" as="geometry">
            <mxPoint x="-109" y="-3" as="offset" />
          </mxGeometry>
        </mxCell>
        <mxCell id="Gp5iSERbQgPD30PwmQMo-75" value="" style="endArrow=classic;html=1;rounded=0;exitX=1.007;exitY=0.461;exitDx=0;exitDy=0;fontFamily=Courier New;fontSize=20;labelBorderColor=none;strokeWidth=4;fontStyle=1;exitPerimeter=0;" parent="1" edge="1">
          <mxGeometry width="50" height="50" relative="1" as="geometry">
            <mxPoint x="690" y="910" as="sourcePoint" />
            <mxPoint x="820" y="910" as="targetPoint" />
          </mxGeometry>
        </mxCell>
        <mxCell id="Gp5iSERbQgPD30PwmQMo-76" value="Data&amp;nbsp;" style="edgeLabel;html=1;align=center;verticalAlign=middle;resizable=0;points=[];fontFamily=Courier New;fontSize=20;labelBorderColor=none;fontStyle=1" parent="Gp5iSERbQgPD30PwmQMo-75" vertex="1" connectable="0">
          <mxGeometry x="-0.2971" relative="1" as="geometry">
            <mxPoint x="15" y="19" as="offset" />
          </mxGeometry>
        </mxCell>
        <mxCell id="Gp5iSERbQgPD30PwmQMo-77" value="" style="endArrow=classic;html=1;rounded=0;exitX=1.007;exitY=0.461;exitDx=0;exitDy=0;fontFamily=Courier New;fontSize=20;labelBorderColor=none;strokeWidth=4;fontStyle=1;exitPerimeter=0;" parent="1" edge="1">
          <mxGeometry width="50" height="50" relative="1" as="geometry">
            <mxPoint x="785" y="910" as="sourcePoint" />
            <mxPoint x="680" y="910" as="targetPoint" />
          </mxGeometry>
        </mxCell>
        <mxCell id="dVV2wtCz7Bltxe6ZF2lV-1" value="ap_bit" style="rounded=1;whiteSpace=wrap;html=1;fontFamily=Courier New;fontSize=20;labelBorderColor=none;strokeWidth=2;fontStyle=1" parent="1" vertex="1">
          <mxGeometry x="685" y="1980" width="90" height="140" as="geometry" />
        </mxCell>
        <mxCell id="dVV2wtCz7Bltxe6ZF2lV-2" value="" style="endArrow=classic;html=1;rounded=0;entryX=0.007;entryY=0.161;entryDx=0;entryDy=0;entryPerimeter=0;fontFamily=Courier New;" parent="1" edge="1">
          <mxGeometry width="50" height="50" relative="1" as="geometry">
            <mxPoint x="660" y="2000" as="sourcePoint" />
            <mxPoint x="685" y="2000.3449999999998" as="targetPoint" />
          </mxGeometry>
        </mxCell>
        <mxCell id="dVV2wtCz7Bltxe6ZF2lV-4" value="&lt;font style=&quot;font-size: 14px;&quot;&gt;clk&lt;/font&gt;" style="edgeLabel;html=1;align=center;verticalAlign=middle;resizable=0;points=[];fontSize=14;fontFamily=Courier New;" parent="dVV2wtCz7Bltxe6ZF2lV-2" vertex="1" connectable="0">
          <mxGeometry x="-0.0215" relative="1" as="geometry">
            <mxPoint x="-32" as="offset" />
          </mxGeometry>
        </mxCell>
        <mxCell id="dVV2wtCz7Bltxe6ZF2lV-5" value="" style="endArrow=classic;html=1;rounded=0;entryX=0.001;entryY=0.172;entryDx=0;entryDy=0;entryPerimeter=0;fontFamily=Courier New;" parent="1" edge="1">
          <mxGeometry width="50" height="50" relative="1" as="geometry">
            <mxPoint x="660" y="2025" as="sourcePoint" />
            <mxPoint x="685" y="2025" as="targetPoint" />
          </mxGeometry>
        </mxCell>
        <mxCell id="dVV2wtCz7Bltxe6ZF2lV-6" value="&lt;font style=&quot;font-size: 14px;&quot;&gt;instruction&lt;/font&gt;" style="edgeLabel;html=1;align=center;verticalAlign=middle;resizable=0;points=[];fontSize=14;fontFamily=Courier New;" parent="dVV2wtCz7Bltxe6ZF2lV-5" vertex="1" connectable="0">
          <mxGeometry x="-0.0215" relative="1" as="geometry">
            <mxPoint x="-62" y="-1" as="offset" />
          </mxGeometry>
        </mxCell>
        <mxCell id="dVV2wtCz7Bltxe6ZF2lV-8" value="" style="endArrow=classic;html=1;rounded=0;entryX=0.001;entryY=0.172;entryDx=0;entryDy=0;entryPerimeter=0;fontFamily=Courier New;" parent="1" edge="1">
          <mxGeometry width="50" height="50" relative="1" as="geometry">
            <mxPoint x="660" y="2050" as="sourcePoint" />
            <mxPoint x="685" y="2050" as="targetPoint" />
          </mxGeometry>
        </mxCell>
        <mxCell id="dVV2wtCz7Bltxe6ZF2lV-9" value="&lt;font style=&quot;font-size: 14px;&quot;&gt;data_i&lt;/font&gt;" style="edgeLabel;html=1;align=center;verticalAlign=middle;resizable=0;points=[];fontSize=14;fontFamily=Courier New;" parent="dVV2wtCz7Bltxe6ZF2lV-8" vertex="1" connectable="0">
          <mxGeometry x="-0.0215" relative="1" as="geometry">
            <mxPoint x="-42" as="offset" />
          </mxGeometry>
        </mxCell>
        <mxCell id="dVV2wtCz7Bltxe6ZF2lV-10" value="" style="endArrow=classic;html=1;rounded=0;entryX=0.001;entryY=0.172;entryDx=0;entryDy=0;entryPerimeter=0;fontFamily=Courier New;" parent="1" edge="1">
          <mxGeometry width="50" height="50" relative="1" as="geometry">
            <mxPoint x="660" y="2075" as="sourcePoint" />
            <mxPoint x="685" y="2075" as="targetPoint" />
          </mxGeometry>
        </mxCell>
        <mxCell id="dVV2wtCz7Bltxe6ZF2lV-11" value="&lt;font style=&quot;font-size: 14px;&quot;&gt;valid_i&lt;/font&gt;" style="edgeLabel;html=1;align=center;verticalAlign=middle;resizable=0;points=[];fontSize=14;fontFamily=Courier New;" parent="dVV2wtCz7Bltxe6ZF2lV-10" vertex="1" connectable="0">
          <mxGeometry x="-0.0215" relative="1" as="geometry">
            <mxPoint x="-47" as="offset" />
          </mxGeometry>
        </mxCell>
        <mxCell id="dVV2wtCz7Bltxe6ZF2lV-12" value="" style="endArrow=classic;html=1;rounded=0;entryX=0.001;entryY=0.172;entryDx=0;entryDy=0;entryPerimeter=0;fontFamily=Courier New;" parent="1" edge="1">
          <mxGeometry width="50" height="50" relative="1" as="geometry">
            <mxPoint x="660" y="2100" as="sourcePoint" />
            <mxPoint x="685" y="2100" as="targetPoint" />
          </mxGeometry>
        </mxCell>
        <mxCell id="dVV2wtCz7Bltxe6ZF2lV-13" value="&lt;font style=&quot;font-size: 14px;&quot;&gt;adjacent_tag_bits&lt;/font&gt;" style="edgeLabel;html=1;align=center;verticalAlign=middle;resizable=0;points=[];fontSize=14;fontFamily=Courier New;" parent="dVV2wtCz7Bltxe6ZF2lV-12" vertex="1" connectable="0">
          <mxGeometry x="-0.0215" relative="1" as="geometry">
            <mxPoint x="-87" as="offset" />
          </mxGeometry>
        </mxCell>
        <mxCell id="dVV2wtCz7Bltxe6ZF2lV-14" value="" style="endArrow=classic;html=1;rounded=0;fontFamily=Courier New;" parent="1" edge="1">
          <mxGeometry width="50" height="50" relative="1" as="geometry">
            <mxPoint x="774" y="2035" as="sourcePoint" />
            <mxPoint x="794" y="2035" as="targetPoint" />
          </mxGeometry>
        </mxCell>
        <mxCell id="dVV2wtCz7Bltxe6ZF2lV-15" value="&lt;font style=&quot;font-size: 14px;&quot;&gt;tag_bits_o&lt;/font&gt;" style="edgeLabel;html=1;align=center;verticalAlign=middle;resizable=0;points=[];fontSize=14;fontFamily=Courier New;" parent="dVV2wtCz7Bltxe6ZF2lV-14" vertex="1" connectable="0">
          <mxGeometry x="-0.0215" relative="1" as="geometry">
            <mxPoint x="56" y="-1" as="offset" />
          </mxGeometry>
        </mxCell>
        <mxCell id="dVV2wtCz7Bltxe6ZF2lV-16" value="" style="endArrow=classic;html=1;rounded=0;fontFamily=Courier New;" parent="1" edge="1">
          <mxGeometry width="50" height="50" relative="1" as="geometry">
            <mxPoint x="774" y="2060" as="sourcePoint" />
            <mxPoint x="794" y="2060" as="targetPoint" />
          </mxGeometry>
        </mxCell>
        <mxCell id="dVV2wtCz7Bltxe6ZF2lV-17" value="&lt;font style=&quot;font-size: 14px;&quot;&gt;data_o&lt;/font&gt;" style="edgeLabel;html=1;align=center;verticalAlign=middle;resizable=0;points=[];fontSize=14;fontFamily=Courier New;" parent="dVV2wtCz7Bltxe6ZF2lV-16" vertex="1" connectable="0">
          <mxGeometry x="-0.0215" relative="1" as="geometry">
            <mxPoint x="41" y="-1" as="offset" />
          </mxGeometry>
        </mxCell>
        <mxCell id="dVV2wtCz7Bltxe6ZF2lV-18" value="" style="rounded=1;whiteSpace=wrap;html=1;fontFamily=Courier New;fontSize=20;labelBorderColor=none;strokeWidth=2;fontStyle=1" parent="1" vertex="1">
          <mxGeometry x="710" y="2165" width="345" height="135" as="geometry" />
        </mxCell>
        <mxCell id="dVV2wtCz7Bltxe6ZF2lV-19" value="" style="endArrow=classic;html=1;rounded=0;entryX=0.007;entryY=0.161;entryDx=0;entryDy=0;entryPerimeter=0;fontFamily=Courier New;" parent="1" edge="1">
          <mxGeometry width="50" height="50" relative="1" as="geometry">
            <mxPoint x="685" y="2185" as="sourcePoint" />
            <mxPoint x="710" y="2185.345" as="targetPoint" />
          </mxGeometry>
        </mxCell>
        <mxCell id="dVV2wtCz7Bltxe6ZF2lV-20" value="&lt;font style=&quot;font-size: 14px;&quot;&gt;clk&lt;/font&gt;" style="edgeLabel;html=1;align=center;verticalAlign=middle;resizable=0;points=[];fontSize=14;fontFamily=Courier New;" parent="dVV2wtCz7Bltxe6ZF2lV-19" vertex="1" connectable="0">
          <mxGeometry x="-0.0215" relative="1" as="geometry">
            <mxPoint x="-32" as="offset" />
          </mxGeometry>
        </mxCell>
        <mxCell id="dVV2wtCz7Bltxe6ZF2lV-21" value="" style="endArrow=classic;html=1;rounded=0;entryX=0.001;entryY=0.172;entryDx=0;entryDy=0;entryPerimeter=0;fontFamily=Courier New;" parent="1" edge="1">
          <mxGeometry width="50" height="50" relative="1" as="geometry">
            <mxPoint x="685" y="2210" as="sourcePoint" />
            <mxPoint x="710" y="2210" as="targetPoint" />
          </mxGeometry>
        </mxCell>
        <mxCell id="dVV2wtCz7Bltxe6ZF2lV-22" value="&lt;font style=&quot;font-size: 14px;&quot;&gt;instruction&lt;/font&gt;" style="edgeLabel;html=1;align=center;verticalAlign=middle;resizable=0;points=[];fontSize=14;fontFamily=Courier New;" parent="dVV2wtCz7Bltxe6ZF2lV-21" vertex="1" connectable="0">
          <mxGeometry x="-0.0215" relative="1" as="geometry">
            <mxPoint x="-62" y="-1" as="offset" />
          </mxGeometry>
        </mxCell>
        <mxCell id="dVV2wtCz7Bltxe6ZF2lV-23" value="" style="endArrow=classic;html=1;rounded=0;entryX=0.001;entryY=0.172;entryDx=0;entryDy=0;entryPerimeter=0;fontFamily=Courier New;" parent="1" edge="1">
          <mxGeometry width="50" height="50" relative="1" as="geometry">
            <mxPoint x="685" y="2235" as="sourcePoint" />
            <mxPoint x="710" y="2235" as="targetPoint" />
          </mxGeometry>
        </mxCell>
        <mxCell id="dVV2wtCz7Bltxe6ZF2lV-24" value="&lt;font style=&quot;font-size: 14px;&quot;&gt;data_i&lt;/font&gt;" style="edgeLabel;html=1;align=center;verticalAlign=middle;resizable=0;points=[];fontSize=14;fontFamily=Courier New;" parent="dVV2wtCz7Bltxe6ZF2lV-23" vertex="1" connectable="0">
          <mxGeometry x="-0.0215" relative="1" as="geometry">
            <mxPoint x="-42" as="offset" />
          </mxGeometry>
        </mxCell>
        <mxCell id="dVV2wtCz7Bltxe6ZF2lV-25" value="" style="endArrow=classic;html=1;rounded=0;entryX=0.001;entryY=0.172;entryDx=0;entryDy=0;entryPerimeter=0;fontFamily=Courier New;" parent="1" edge="1">
          <mxGeometry width="50" height="50" relative="1" as="geometry">
            <mxPoint x="685" y="2260" as="sourcePoint" />
            <mxPoint x="710" y="2260" as="targetPoint" />
          </mxGeometry>
        </mxCell>
        <mxCell id="dVV2wtCz7Bltxe6ZF2lV-26" value="&lt;font style=&quot;font-size: 14px;&quot;&gt;valid_i&lt;/font&gt;" style="edgeLabel;html=1;align=center;verticalAlign=middle;resizable=0;points=[];fontSize=14;fontFamily=Courier New;" parent="dVV2wtCz7Bltxe6ZF2lV-25" vertex="1" connectable="0">
          <mxGeometry x="-0.0215" relative="1" as="geometry">
            <mxPoint x="-47" as="offset" />
          </mxGeometry>
        </mxCell>
        <mxCell id="dVV2wtCz7Bltxe6ZF2lV-27" value="" style="endArrow=classic;html=1;rounded=0;entryX=0.001;entryY=0.172;entryDx=0;entryDy=0;entryPerimeter=0;fontFamily=Courier New;" parent="1" edge="1">
          <mxGeometry width="50" height="50" relative="1" as="geometry">
            <mxPoint x="685" y="2285" as="sourcePoint" />
            <mxPoint x="710" y="2285" as="targetPoint" />
          </mxGeometry>
        </mxCell>
        <mxCell id="dVV2wtCz7Bltxe6ZF2lV-28" value="&lt;font style=&quot;font-size: 14px;&quot;&gt;done&lt;/font&gt;" style="edgeLabel;html=1;align=center;verticalAlign=middle;resizable=0;points=[];fontSize=14;fontFamily=Courier New;" parent="dVV2wtCz7Bltxe6ZF2lV-27" vertex="1" connectable="0">
          <mxGeometry x="-0.0215" relative="1" as="geometry">
            <mxPoint x="-37" y="-2" as="offset" />
          </mxGeometry>
        </mxCell>
        <mxCell id="dVV2wtCz7Bltxe6ZF2lV-29" value="" style="endArrow=classic;html=1;rounded=0;fontFamily=Courier New;" parent="1" edge="1">
          <mxGeometry width="50" height="50" relative="1" as="geometry">
            <mxPoint x="1056" y="2211.23" as="sourcePoint" />
            <mxPoint x="1076" y="2211.23" as="targetPoint" />
          </mxGeometry>
        </mxCell>
        <mxCell id="dVV2wtCz7Bltxe6ZF2lV-30" value="valid_o" style="edgeLabel;html=1;align=center;verticalAlign=middle;resizable=0;points=[];fontSize=14;fontFamily=Courier New;" parent="dVV2wtCz7Bltxe6ZF2lV-29" vertex="1" connectable="0">
          <mxGeometry x="-0.0215" relative="1" as="geometry">
            <mxPoint x="45" y="-1" as="offset" />
          </mxGeometry>
        </mxCell>
        <mxCell id="dVV2wtCz7Bltxe6ZF2lV-31" value="" style="endArrow=classic;html=1;rounded=0;fontFamily=Courier New;" parent="1" edge="1">
          <mxGeometry width="50" height="50" relative="1" as="geometry">
            <mxPoint x="1056" y="2236.23" as="sourcePoint" />
            <mxPoint x="1076" y="2236.23" as="targetPoint" />
          </mxGeometry>
        </mxCell>
        <mxCell id="dVV2wtCz7Bltxe6ZF2lV-32" value="&lt;font style=&quot;font-size: 14px;&quot;&gt;data_o&lt;/font&gt;" style="edgeLabel;html=1;align=center;verticalAlign=middle;resizable=0;points=[];fontSize=14;fontFamily=Courier New;" parent="dVV2wtCz7Bltxe6ZF2lV-31" vertex="1" connectable="0">
          <mxGeometry x="-0.0215" relative="1" as="geometry">
            <mxPoint x="41" y="-1" as="offset" />
          </mxGeometry>
        </mxCell>
        <mxCell id="dVV2wtCz7Bltxe6ZF2lV-35" value="ap_bit" style="rounded=1;whiteSpace=wrap;html=1;fontFamily=Courier New;fontSize=20;labelBorderColor=none;strokeWidth=2;fontStyle=1" parent="1" vertex="1">
          <mxGeometry x="750" y="2202.5" width="100" height="60" as="geometry" />
        </mxCell>
        <mxCell id="dVV2wtCz7Bltxe6ZF2lV-36" value="" style="endArrow=classic;html=1;rounded=0;fontFamily=Courier New;" parent="1" edge="1">
          <mxGeometry width="50" height="50" relative="1" as="geometry">
            <mxPoint x="1056" y="2259.23" as="sourcePoint" />
            <mxPoint x="1076" y="2259.23" as="targetPoint" />
          </mxGeometry>
        </mxCell>
        <mxCell id="dVV2wtCz7Bltxe6ZF2lV-37" value="ready_o" style="edgeLabel;html=1;align=center;verticalAlign=middle;resizable=0;points=[];fontSize=14;fontFamily=Courier New;" parent="dVV2wtCz7Bltxe6ZF2lV-36" vertex="1" connectable="0">
          <mxGeometry x="-0.0215" relative="1" as="geometry">
            <mxPoint x="45" y="-1" as="offset" />
          </mxGeometry>
        </mxCell>
        <mxCell id="dVV2wtCz7Bltxe6ZF2lV-38" value="x number of bits" style="text;html=1;align=center;verticalAlign=middle;resizable=0;points=[];autosize=1;strokeColor=none;fillColor=none;fontStyle=1;fontSize=20;" parent="1" vertex="1">
          <mxGeometry x="855" y="2212.5" width="175" height="40" as="geometry" />
        </mxCell>
        <mxCell id="dVV2wtCz7Bltxe6ZF2lV-39" value="&lt;br&gt;&lt;br&gt;&lt;br&gt;decoder_pipelined" style="rounded=1;whiteSpace=wrap;html=1;fontFamily=Courier New;fontSize=20;labelBorderColor=none;strokeWidth=2;fontStyle=1" parent="1" vertex="1">
          <mxGeometry x="625" y="2385" width="345" height="135" as="geometry" />
        </mxCell>
        <mxCell id="dVV2wtCz7Bltxe6ZF2lV-40" value="" style="endArrow=classic;html=1;rounded=0;entryX=0.007;entryY=0.161;entryDx=0;entryDy=0;entryPerimeter=0;fontFamily=Courier New;" parent="1" edge="1">
          <mxGeometry width="50" height="50" relative="1" as="geometry">
            <mxPoint x="600" y="2405" as="sourcePoint" />
            <mxPoint x="625" y="2405.345" as="targetPoint" />
          </mxGeometry>
        </mxCell>
        <mxCell id="dVV2wtCz7Bltxe6ZF2lV-41" value="&lt;font style=&quot;font-size: 14px;&quot;&gt;clk&lt;/font&gt;" style="edgeLabel;html=1;align=center;verticalAlign=middle;resizable=0;points=[];fontSize=14;fontFamily=Courier New;" parent="dVV2wtCz7Bltxe6ZF2lV-40" vertex="1" connectable="0">
          <mxGeometry x="-0.0215" relative="1" as="geometry">
            <mxPoint x="-32" as="offset" />
          </mxGeometry>
        </mxCell>
        <mxCell id="dVV2wtCz7Bltxe6ZF2lV-42" value="" style="endArrow=classic;html=1;rounded=0;entryX=0.001;entryY=0.172;entryDx=0;entryDy=0;entryPerimeter=0;fontFamily=Courier New;" parent="1" edge="1">
          <mxGeometry width="50" height="50" relative="1" as="geometry">
            <mxPoint x="600" y="2430" as="sourcePoint" />
            <mxPoint x="625" y="2430" as="targetPoint" />
          </mxGeometry>
        </mxCell>
        <mxCell id="dVV2wtCz7Bltxe6ZF2lV-43" value="&lt;font style=&quot;font-size: 14px;&quot;&gt;instruction_decode&lt;/font&gt;" style="edgeLabel;html=1;align=center;verticalAlign=middle;resizable=0;points=[];fontSize=14;fontFamily=Courier New;" parent="dVV2wtCz7Bltxe6ZF2lV-42" vertex="1" connectable="0">
          <mxGeometry x="-0.0215" relative="1" as="geometry">
            <mxPoint x="-62" y="-1" as="offset" />
          </mxGeometry>
        </mxCell>
        <mxCell id="dVV2wtCz7Bltxe6ZF2lV-44" value="" style="endArrow=classic;html=1;rounded=0;entryX=0.001;entryY=0.172;entryDx=0;entryDy=0;entryPerimeter=0;fontFamily=Courier New;" parent="1" edge="1">
          <mxGeometry width="50" height="50" relative="1" as="geometry">
            <mxPoint x="600" y="2455" as="sourcePoint" />
            <mxPoint x="625" y="2455" as="targetPoint" />
          </mxGeometry>
        </mxCell>
        <mxCell id="dVV2wtCz7Bltxe6ZF2lV-45" value="&lt;font style=&quot;font-size: 14px;&quot;&gt;data_i&lt;/font&gt;" style="edgeLabel;html=1;align=center;verticalAlign=middle;resizable=0;points=[];fontSize=14;fontFamily=Courier New;" parent="dVV2wtCz7Bltxe6ZF2lV-44" vertex="1" connectable="0">
          <mxGeometry x="-0.0215" relative="1" as="geometry">
            <mxPoint x="-42" as="offset" />
          </mxGeometry>
        </mxCell>
        <mxCell id="dVV2wtCz7Bltxe6ZF2lV-46" value="" style="endArrow=classic;html=1;rounded=0;entryX=0.001;entryY=0.172;entryDx=0;entryDy=0;entryPerimeter=0;fontFamily=Courier New;" parent="1" edge="1">
          <mxGeometry width="50" height="50" relative="1" as="geometry">
            <mxPoint x="600" y="2480" as="sourcePoint" />
            <mxPoint x="625" y="2480" as="targetPoint" />
          </mxGeometry>
        </mxCell>
        <mxCell id="dVV2wtCz7Bltxe6ZF2lV-47" value="&lt;font style=&quot;font-size: 14px;&quot;&gt;valid_i&lt;/font&gt;" style="edgeLabel;html=1;align=center;verticalAlign=middle;resizable=0;points=[];fontSize=14;fontFamily=Courier New;" parent="dVV2wtCz7Bltxe6ZF2lV-46" vertex="1" connectable="0">
          <mxGeometry x="-0.0215" relative="1" as="geometry">
            <mxPoint x="-47" as="offset" />
          </mxGeometry>
        </mxCell>
        <mxCell id="dVV2wtCz7Bltxe6ZF2lV-48" value="" style="endArrow=classic;html=1;rounded=0;entryX=0.001;entryY=0.172;entryDx=0;entryDy=0;entryPerimeter=0;fontFamily=Courier New;" parent="1" edge="1">
          <mxGeometry width="50" height="50" relative="1" as="geometry">
            <mxPoint x="600" y="2505" as="sourcePoint" />
            <mxPoint x="625" y="2505" as="targetPoint" />
          </mxGeometry>
        </mxCell>
        <mxCell id="dVV2wtCz7Bltxe6ZF2lV-49" value="&lt;font style=&quot;font-size: 14px;&quot;&gt;done&lt;/font&gt;" style="edgeLabel;html=1;align=center;verticalAlign=middle;resizable=0;points=[];fontSize=14;fontFamily=Courier New;" parent="dVV2wtCz7Bltxe6ZF2lV-48" vertex="1" connectable="0">
          <mxGeometry x="-0.0215" relative="1" as="geometry">
            <mxPoint x="-37" y="-2" as="offset" />
          </mxGeometry>
        </mxCell>
        <mxCell id="dVV2wtCz7Bltxe6ZF2lV-50" value="" style="endArrow=classic;html=1;rounded=0;fontFamily=Courier New;" parent="1" edge="1">
          <mxGeometry width="50" height="50" relative="1" as="geometry">
            <mxPoint x="971" y="2431.23" as="sourcePoint" />
            <mxPoint x="991" y="2431.23" as="targetPoint" />
          </mxGeometry>
        </mxCell>
        <mxCell id="dVV2wtCz7Bltxe6ZF2lV-51" value="valid_o" style="edgeLabel;html=1;align=center;verticalAlign=middle;resizable=0;points=[];fontSize=14;fontFamily=Courier New;" parent="dVV2wtCz7Bltxe6ZF2lV-50" vertex="1" connectable="0">
          <mxGeometry x="-0.0215" relative="1" as="geometry">
            <mxPoint x="45" y="-1" as="offset" />
          </mxGeometry>
        </mxCell>
        <mxCell id="dVV2wtCz7Bltxe6ZF2lV-52" value="" style="endArrow=classic;html=1;rounded=0;fontFamily=Courier New;" parent="1" edge="1">
          <mxGeometry width="50" height="50" relative="1" as="geometry">
            <mxPoint x="971" y="2456.23" as="sourcePoint" />
            <mxPoint x="991" y="2456.23" as="targetPoint" />
          </mxGeometry>
        </mxCell>
        <mxCell id="dVV2wtCz7Bltxe6ZF2lV-53" value="&lt;font style=&quot;font-size: 14px;&quot;&gt;data_o&lt;/font&gt;" style="edgeLabel;html=1;align=center;verticalAlign=middle;resizable=0;points=[];fontSize=14;fontFamily=Courier New;" parent="dVV2wtCz7Bltxe6ZF2lV-52" vertex="1" connectable="0">
          <mxGeometry x="-0.0215" relative="1" as="geometry">
            <mxPoint x="41" y="-1" as="offset" />
          </mxGeometry>
        </mxCell>
        <mxCell id="dVV2wtCz7Bltxe6ZF2lV-54" value="ap_bit" style="rounded=1;whiteSpace=wrap;html=1;fontFamily=Courier New;fontSize=20;labelBorderColor=none;strokeWidth=2;fontStyle=1" parent="1" vertex="1">
          <mxGeometry x="665" y="2410" width="100" height="60" as="geometry" />
        </mxCell>
        <mxCell id="dVV2wtCz7Bltxe6ZF2lV-55" value="" style="endArrow=classic;html=1;rounded=0;fontFamily=Courier New;" parent="1" edge="1">
          <mxGeometry width="50" height="50" relative="1" as="geometry">
            <mxPoint x="971" y="2479.23" as="sourcePoint" />
            <mxPoint x="991" y="2479.23" as="targetPoint" />
          </mxGeometry>
        </mxCell>
        <mxCell id="dVV2wtCz7Bltxe6ZF2lV-56" value="ready_o" style="edgeLabel;html=1;align=center;verticalAlign=middle;resizable=0;points=[];fontSize=14;fontFamily=Courier New;" parent="dVV2wtCz7Bltxe6ZF2lV-55" vertex="1" connectable="0">
          <mxGeometry x="-0.0215" relative="1" as="geometry">
            <mxPoint x="45" y="-1" as="offset" />
          </mxGeometry>
        </mxCell>
        <mxCell id="dVV2wtCz7Bltxe6ZF2lV-57" value="x number of bits" style="text;html=1;align=center;verticalAlign=middle;resizable=0;points=[];autosize=1;strokeColor=none;fillColor=none;fontStyle=1;fontSize=20;" parent="1" vertex="1">
          <mxGeometry x="770" y="2415" width="175" height="40" as="geometry" />
        </mxCell>
        <mxCell id="M5dAslkAMIHiw4sGl7hw-1" value="" style="edgeStyle=orthogonalEdgeStyle;rounded=0;orthogonalLoop=1;jettySize=auto;html=1;strokeWidth=6;fontFamily=Georgia;fontSize=30;" edge="1" parent="1" source="M5dAslkAMIHiw4sGl7hw-2" target="M5dAslkAMIHiw4sGl7hw-4">
          <mxGeometry relative="1" as="geometry" />
        </mxCell>
        <mxCell id="M5dAslkAMIHiw4sGl7hw-2" value="Idle" style="ellipse;whiteSpace=wrap;html=1;aspect=fixed;strokeWidth=4;fontSize=30;fontFamily=Georgia;fontStyle=1" vertex="1" parent="1">
          <mxGeometry x="1190" y="2555" width="165" height="165" as="geometry" />
        </mxCell>
        <mxCell id="M5dAslkAMIHiw4sGl7hw-4" value="Execute" style="ellipse;whiteSpace=wrap;html=1;aspect=fixed;strokeWidth=4;fontSize=30;fontFamily=Georgia;fontStyle=1" vertex="1" parent="1">
          <mxGeometry x="1425" y="2555" width="165" height="165" as="geometry" />
        </mxCell>
        <mxCell id="M5dAslkAMIHiw4sGl7hw-6" value="Delay" style="ellipse;whiteSpace=wrap;html=1;aspect=fixed;strokeWidth=4;fontSize=30;fontFamily=Georgia;fontStyle=1" vertex="1" parent="1">
          <mxGeometry x="1305" y="2750" width="165" height="165" as="geometry" />
        </mxCell>
        <mxCell id="M5dAslkAMIHiw4sGl7hw-10" value="" style="endArrow=classic;html=1;rounded=0;entryX=0.459;entryY=0.997;entryDx=0;entryDy=0;entryPerimeter=0;exitX=0.114;exitY=0.173;exitDx=0;exitDy=0;exitPerimeter=0;strokeWidth=6;" edge="1" parent="1" source="M5dAslkAMIHiw4sGl7hw-6" target="M5dAslkAMIHiw4sGl7hw-2">
          <mxGeometry width="50" height="50" relative="1" as="geometry">
            <mxPoint x="1154" y="2810" as="sourcePoint" />
            <mxPoint x="1204" y="2760" as="targetPoint" />
          </mxGeometry>
        </mxCell>
        <mxCell id="M5dAslkAMIHiw4sGl7hw-11" value="" style="endArrow=classic;html=1;rounded=0;entryX=0.905;entryY=0.19;entryDx=0;entryDy=0;entryPerimeter=0;exitX=0.5;exitY=1;exitDx=0;exitDy=0;strokeWidth=6;" edge="1" parent="1" source="M5dAslkAMIHiw4sGl7hw-4" target="M5dAslkAMIHiw4sGl7hw-6">
          <mxGeometry width="50" height="50" relative="1" as="geometry">
            <mxPoint x="1585" y="2812" as="sourcePoint" />
            <mxPoint x="1525" y="2750" as="targetPoint" />
          </mxGeometry>
        </mxCell>
        <mxCell id="M5dAslkAMIHiw4sGl7hw-12" value="" style="edgeStyle=orthogonalEdgeStyle;rounded=0;orthogonalLoop=1;jettySize=auto;html=1;strokeWidth=6;fontFamily=Georgia;fontSize=30;" edge="1" parent="1" source="M5dAslkAMIHiw4sGl7hw-13" target="M5dAslkAMIHiw4sGl7hw-14">
          <mxGeometry relative="1" as="geometry" />
        </mxCell>
        <mxCell id="M5dAslkAMIHiw4sGl7hw-13" value="Idle" style="ellipse;whiteSpace=wrap;html=1;aspect=fixed;strokeWidth=4;fontSize=30;fontFamily=Georgia;fontStyle=1" vertex="1" parent="1">
          <mxGeometry x="725" y="2600" width="165" height="165" as="geometry" />
        </mxCell>
        <mxCell id="M5dAslkAMIHiw4sGl7hw-14" value="Delay" style="ellipse;whiteSpace=wrap;html=1;aspect=fixed;strokeWidth=4;fontSize=30;fontFamily=Georgia;fontStyle=1" vertex="1" parent="1">
          <mxGeometry x="960" y="2600" width="165" height="165" as="geometry" />
        </mxCell>
        <mxCell id="M5dAslkAMIHiw4sGl7hw-15" value="Execute" style="ellipse;whiteSpace=wrap;html=1;aspect=fixed;strokeWidth=4;fontSize=30;fontFamily=Georgia;fontStyle=1" vertex="1" parent="1">
          <mxGeometry x="840" y="2795" width="165" height="165" as="geometry" />
        </mxCell>
        <mxCell id="M5dAslkAMIHiw4sGl7hw-16" value="" style="endArrow=classic;html=1;rounded=0;entryX=0.459;entryY=0.997;entryDx=0;entryDy=0;entryPerimeter=0;exitX=0.114;exitY=0.173;exitDx=0;exitDy=0;exitPerimeter=0;strokeWidth=6;" edge="1" parent="1" source="M5dAslkAMIHiw4sGl7hw-15" target="M5dAslkAMIHiw4sGl7hw-13">
          <mxGeometry width="50" height="50" relative="1" as="geometry">
            <mxPoint x="689" y="2855" as="sourcePoint" />
            <mxPoint x="739" y="2805" as="targetPoint" />
          </mxGeometry>
        </mxCell>
        <mxCell id="M5dAslkAMIHiw4sGl7hw-17" value="" style="endArrow=classic;html=1;rounded=0;entryX=0.905;entryY=0.19;entryDx=0;entryDy=0;entryPerimeter=0;exitX=0.5;exitY=1;exitDx=0;exitDy=0;strokeWidth=6;" edge="1" parent="1" source="M5dAslkAMIHiw4sGl7hw-14" target="M5dAslkAMIHiw4sGl7hw-15">
          <mxGeometry width="50" height="50" relative="1" as="geometry">
            <mxPoint x="1120" y="2857" as="sourcePoint" />
            <mxPoint x="1060" y="2795" as="targetPoint" />
          </mxGeometry>
        </mxCell>
        <mxCell id="M5dAslkAMIHiw4sGl7hw-20" value="VCU" style="rounded=1;whiteSpace=wrap;html=1;fontSize=40;fontFamily=Courier New;labelBorderColor=none;strokeWidth=4;fontStyle=1" vertex="1" parent="1">
          <mxGeometry x="1152" y="1600" width="246" height="185" as="geometry" />
        </mxCell>
        <mxCell id="M5dAslkAMIHiw4sGl7hw-21" value="" style="edgeStyle=orthogonalEdgeStyle;rounded=0;orthogonalLoop=1;jettySize=auto;html=1;fontFamily=Courier New;strokeWidth=5;" edge="1" parent="1" source="M5dAslkAMIHiw4sGl7hw-22" target="M5dAslkAMIHiw4sGl7hw-20">
          <mxGeometry relative="1" as="geometry">
            <Array as="points">
              <mxPoint x="1341" y="1810" />
              <mxPoint x="1341" y="1810" />
            </Array>
          </mxGeometry>
        </mxCell>
        <mxCell id="M5dAslkAMIHiw4sGl7hw-35" value="bit_serial_instr_data" style="edgeLabel;html=1;align=center;verticalAlign=middle;resizable=0;points=[];fontFamily=Courier New;" vertex="1" connectable="0" parent="M5dAslkAMIHiw4sGl7hw-21">
          <mxGeometry x="0.26" y="3" relative="1" as="geometry">
            <mxPoint x="82" y="35" as="offset" />
          </mxGeometry>
        </mxCell>
        <mxCell id="M5dAslkAMIHiw4sGl7hw-22" value="Memory" style="rounded=1;whiteSpace=wrap;html=1;fontSize=18;fontFamily=Courier New;strokeWidth=4;" vertex="1" parent="1">
          <mxGeometry x="1289" y="1865" width="105" height="63" as="geometry" />
        </mxCell>
        <mxCell id="M5dAslkAMIHiw4sGl7hw-23" value="" style="edgeStyle=orthogonalEdgeStyle;rounded=0;orthogonalLoop=1;jettySize=auto;html=1;fontFamily=Courier New;strokeWidth=4;" edge="1" parent="1" source="M5dAslkAMIHiw4sGl7hw-24" target="M5dAslkAMIHiw4sGl7hw-20">
          <mxGeometry relative="1" as="geometry">
            <Array as="points">
              <mxPoint x="1207" y="1805" />
              <mxPoint x="1207" y="1805" />
            </Array>
          </mxGeometry>
        </mxCell>
        <mxCell id="M5dAslkAMIHiw4sGl7hw-36" value="&lt;font&gt;bit_parallel_instr_data&lt;/font&gt;" style="edgeLabel;html=1;align=center;verticalAlign=middle;resizable=0;points=[];fontFamily=Courier New;" vertex="1" connectable="0" parent="M5dAslkAMIHiw4sGl7hw-23">
          <mxGeometry x="-0.06" y="1" relative="1" as="geometry">
            <mxPoint x="-86" y="23" as="offset" />
          </mxGeometry>
        </mxCell>
        <mxCell id="M5dAslkAMIHiw4sGl7hw-24" value="Memory" style="rounded=1;whiteSpace=wrap;html=1;fontSize=18;fontFamily=Courier New;strokeWidth=4;" vertex="1" parent="1">
          <mxGeometry x="1154" y="1865" width="105" height="63" as="geometry" />
        </mxCell>
        <mxCell id="M5dAslkAMIHiw4sGl7hw-25" value="" style="endArrow=classic;html=1;rounded=0;entryX=0.006;entryY=0.365;entryDx=0;entryDy=0;entryPerimeter=0;exitX=0.037;exitY=0.413;exitDx=0;exitDy=0;exitPerimeter=0;fontFamily=Courier New;fontSize=20;labelBorderColor=none;strokeWidth=4;fontStyle=1" edge="1" parent="1">
          <mxGeometry width="50" height="50" relative="1" as="geometry">
            <mxPoint x="1057.3619999999999" y="1679.753" as="sourcePoint" />
            <mxPoint x="1154" y="1679.6" as="targetPoint" />
          </mxGeometry>
        </mxCell>
        <mxCell id="M5dAslkAMIHiw4sGl7hw-26" value="instruction_decode" style="edgeLabel;html=1;align=center;verticalAlign=middle;resizable=0;points=[];fontFamily=Courier New;fontSize=20;labelBorderColor=none;fontStyle=1" vertex="1" connectable="0" parent="M5dAslkAMIHiw4sGl7hw-25">
          <mxGeometry x="-0.2971" relative="1" as="geometry">
            <mxPoint x="-159" as="offset" />
          </mxGeometry>
        </mxCell>
        <mxCell id="M5dAslkAMIHiw4sGl7hw-27" value="" style="endArrow=classic;html=1;rounded=0;exitX=1.007;exitY=0.461;exitDx=0;exitDy=0;fontFamily=Courier New;fontSize=20;labelBorderColor=none;strokeWidth=4;fontStyle=1;exitPerimeter=0;" edge="1" parent="1">
          <mxGeometry width="50" height="50" relative="1" as="geometry">
            <mxPoint x="1398.0020000000002" y="1642.3849999999998" as="sourcePoint" />
            <mxPoint x="1493.28" y="1642.1" as="targetPoint" />
          </mxGeometry>
        </mxCell>
        <mxCell id="M5dAslkAMIHiw4sGl7hw-28" value="instruction_o" style="edgeLabel;html=1;align=center;verticalAlign=middle;resizable=0;points=[];fontFamily=Courier New;fontSize=20;labelBorderColor=none;fontStyle=1" vertex="1" connectable="0" parent="M5dAslkAMIHiw4sGl7hw-27">
          <mxGeometry x="-0.2971" relative="1" as="geometry">
            <mxPoint x="162" as="offset" />
          </mxGeometry>
        </mxCell>
        <mxCell id="M5dAslkAMIHiw4sGl7hw-29" value="" style="endArrow=classic;html=1;rounded=0;entryX=0.006;entryY=0.365;entryDx=0;entryDy=0;entryPerimeter=0;exitX=0.037;exitY=0.413;exitDx=0;exitDy=0;exitPerimeter=0;fontFamily=Courier New;fontSize=20;labelBorderColor=none;strokeWidth=4;fontStyle=1" edge="1" parent="1">
          <mxGeometry width="50" height="50" relative="1" as="geometry">
            <mxPoint x="1057.3619999999999" y="1654.753" as="sourcePoint" />
            <mxPoint x="1154" y="1654.6" as="targetPoint" />
          </mxGeometry>
        </mxCell>
        <mxCell id="M5dAslkAMIHiw4sGl7hw-30" value="clk" style="edgeLabel;html=1;align=center;verticalAlign=middle;resizable=0;points=[];fontFamily=Courier New;fontSize=20;labelBorderColor=none;fontStyle=1" vertex="1" connectable="0" parent="M5dAslkAMIHiw4sGl7hw-29">
          <mxGeometry x="-0.2971" relative="1" as="geometry">
            <mxPoint x="-159" as="offset" />
          </mxGeometry>
        </mxCell>
        <mxCell id="M5dAslkAMIHiw4sGl7hw-31" value="" style="endArrow=classic;html=1;rounded=0;entryX=0.006;entryY=0.365;entryDx=0;entryDy=0;entryPerimeter=0;exitX=0.037;exitY=0.413;exitDx=0;exitDy=0;exitPerimeter=0;fontFamily=Courier New;fontSize=20;labelBorderColor=none;strokeWidth=4;fontStyle=1" edge="1" parent="1">
          <mxGeometry width="50" height="50" relative="1" as="geometry">
            <mxPoint x="1057.3619999999999" y="1704.753" as="sourcePoint" />
            <mxPoint x="1154" y="1704.6" as="targetPoint" />
          </mxGeometry>
        </mxCell>
        <mxCell id="M5dAslkAMIHiw4sGl7hw-32" value="valid_i" style="edgeLabel;html=1;align=center;verticalAlign=middle;resizable=0;points=[];fontFamily=Courier New;fontSize=20;labelBorderColor=none;fontStyle=1" vertex="1" connectable="0" parent="M5dAslkAMIHiw4sGl7hw-31">
          <mxGeometry x="-0.2971" relative="1" as="geometry">
            <mxPoint x="-159" as="offset" />
          </mxGeometry>
        </mxCell>
        <mxCell id="M5dAslkAMIHiw4sGl7hw-33" value="" style="endArrow=classic;html=1;rounded=0;entryX=0.006;entryY=0.365;entryDx=0;entryDy=0;entryPerimeter=0;exitX=0.037;exitY=0.413;exitDx=0;exitDy=0;exitPerimeter=0;fontFamily=Courier New;fontSize=20;labelBorderColor=none;strokeWidth=4;fontStyle=1" edge="1" parent="1">
          <mxGeometry width="50" height="50" relative="1" as="geometry">
            <mxPoint x="1057.3619999999999" y="1729.753" as="sourcePoint" />
            <mxPoint x="1154" y="1729.6" as="targetPoint" />
          </mxGeometry>
        </mxCell>
        <mxCell id="M5dAslkAMIHiw4sGl7hw-34" value="csb_ready" style="edgeLabel;html=1;align=center;verticalAlign=middle;resizable=0;points=[];fontFamily=Courier New;fontSize=20;labelBorderColor=none;fontStyle=1" vertex="1" connectable="0" parent="M5dAslkAMIHiw4sGl7hw-33">
          <mxGeometry x="-0.2971" relative="1" as="geometry">
            <mxPoint x="-159" as="offset" />
          </mxGeometry>
        </mxCell>
        <mxCell id="M5dAslkAMIHiw4sGl7hw-37" value="" style="endArrow=classic;html=1;rounded=0;exitX=1.007;exitY=0.461;exitDx=0;exitDy=0;fontFamily=Courier New;fontSize=20;labelBorderColor=none;strokeWidth=4;fontStyle=1;exitPerimeter=0;" edge="1" parent="1">
          <mxGeometry width="50" height="50" relative="1" as="geometry">
            <mxPoint x="1398" y="1667.1" as="sourcePoint" />
            <mxPoint x="1493" y="1667.1" as="targetPoint" />
          </mxGeometry>
        </mxCell>
        <mxCell id="M5dAslkAMIHiw4sGl7hw-38" value="data_o" style="edgeLabel;html=1;align=center;verticalAlign=middle;resizable=0;points=[];fontFamily=Courier New;fontSize=20;labelBorderColor=none;fontStyle=1" vertex="1" connectable="0" parent="M5dAslkAMIHiw4sGl7hw-37">
          <mxGeometry x="-0.2971" relative="1" as="geometry">
            <mxPoint x="162" as="offset" />
          </mxGeometry>
        </mxCell>
        <mxCell id="M5dAslkAMIHiw4sGl7hw-39" value="" style="endArrow=classic;html=1;rounded=0;exitX=1.007;exitY=0.461;exitDx=0;exitDy=0;fontFamily=Courier New;fontSize=20;labelBorderColor=none;strokeWidth=4;fontStyle=1;exitPerimeter=0;" edge="1" parent="1">
          <mxGeometry width="50" height="50" relative="1" as="geometry">
            <mxPoint x="1398" y="1692.1" as="sourcePoint" />
            <mxPoint x="1493" y="1692.1" as="targetPoint" />
          </mxGeometry>
        </mxCell>
        <mxCell id="M5dAslkAMIHiw4sGl7hw-40" value="valid_instruction" style="edgeLabel;html=1;align=center;verticalAlign=middle;resizable=0;points=[];fontFamily=Courier New;fontSize=20;labelBorderColor=none;fontStyle=1" vertex="1" connectable="0" parent="M5dAslkAMIHiw4sGl7hw-39">
          <mxGeometry x="-0.2971" relative="1" as="geometry">
            <mxPoint x="173" as="offset" />
          </mxGeometry>
        </mxCell>
        <mxCell id="M5dAslkAMIHiw4sGl7hw-41" value="" style="endArrow=classic;html=1;rounded=0;exitX=1.007;exitY=0.461;exitDx=0;exitDy=0;fontFamily=Courier New;fontSize=20;labelBorderColor=none;strokeWidth=4;fontStyle=1;exitPerimeter=0;" edge="1" parent="1">
          <mxGeometry width="50" height="50" relative="1" as="geometry">
            <mxPoint x="1398" y="1717.1" as="sourcePoint" />
            <mxPoint x="1493" y="1717.1" as="targetPoint" />
          </mxGeometry>
        </mxCell>
        <mxCell id="M5dAslkAMIHiw4sGl7hw-42" value="done" style="edgeLabel;html=1;align=center;verticalAlign=middle;resizable=0;points=[];fontFamily=Courier New;fontSize=20;labelBorderColor=none;fontStyle=1" vertex="1" connectable="0" parent="M5dAslkAMIHiw4sGl7hw-41">
          <mxGeometry x="-0.2971" relative="1" as="geometry">
            <mxPoint x="162" as="offset" />
          </mxGeometry>
        </mxCell>
        <mxCell id="M5dAslkAMIHiw4sGl7hw-43" value="" style="endArrow=classic;html=1;rounded=0;exitX=1.007;exitY=0.461;exitDx=0;exitDy=0;fontFamily=Courier New;fontSize=20;labelBorderColor=none;strokeWidth=4;fontStyle=1;exitPerimeter=0;" edge="1" parent="1">
          <mxGeometry width="50" height="50" relative="1" as="geometry">
            <mxPoint x="1398" y="1742.1" as="sourcePoint" />
            <mxPoint x="1493" y="1742.1" as="targetPoint" />
          </mxGeometry>
        </mxCell>
        <mxCell id="M5dAslkAMIHiw4sGl7hw-44" value="ready_o" style="edgeLabel;html=1;align=center;verticalAlign=middle;resizable=0;points=[];fontFamily=Courier New;fontSize=20;labelBorderColor=none;fontStyle=1" vertex="1" connectable="0" parent="M5dAslkAMIHiw4sGl7hw-43">
          <mxGeometry x="-0.2971" relative="1" as="geometry">
            <mxPoint x="162" as="offset" />
          </mxGeometry>
        </mxCell>
        <mxCell id="M5dAslkAMIHiw4sGl7hw-45" value="" style="edgeStyle=orthogonalEdgeStyle;rounded=0;orthogonalLoop=1;jettySize=auto;html=1;fontFamily=Courier New;strokeWidth=5;" edge="1" parent="1">
          <mxGeometry relative="1" as="geometry">
            <mxPoint x="1230" y="1785" as="sourcePoint" />
            <mxPoint x="1230" y="1865" as="targetPoint" />
            <Array as="points">
              <mxPoint x="1230" y="1790" />
              <mxPoint x="1230" y="1790" />
            </Array>
          </mxGeometry>
        </mxCell>
        <mxCell id="M5dAslkAMIHiw4sGl7hw-46" value="address_bit_parallel" style="edgeLabel;html=1;align=center;verticalAlign=middle;resizable=0;points=[];fontFamily=Courier New;" vertex="1" connectable="0" parent="M5dAslkAMIHiw4sGl7hw-45">
          <mxGeometry x="0.26" y="3" relative="1" as="geometry">
            <mxPoint x="-79" y="-20" as="offset" />
          </mxGeometry>
        </mxCell>
        <mxCell id="M5dAslkAMIHiw4sGl7hw-47" value="" style="edgeStyle=orthogonalEdgeStyle;rounded=0;orthogonalLoop=1;jettySize=auto;html=1;fontFamily=Courier New;strokeWidth=5;" edge="1" parent="1">
          <mxGeometry relative="1" as="geometry">
            <mxPoint x="1315" y="1785" as="sourcePoint" />
            <mxPoint x="1315" y="1865" as="targetPoint" />
            <Array as="points">
              <mxPoint x="1315" y="1790" />
              <mxPoint x="1315" y="1790" />
            </Array>
          </mxGeometry>
        </mxCell>
        <mxCell id="M5dAslkAMIHiw4sGl7hw-48" value="address_bit_serial" style="edgeLabel;html=1;align=center;verticalAlign=middle;resizable=0;points=[];fontFamily=Courier New;" vertex="1" connectable="0" parent="M5dAslkAMIHiw4sGl7hw-47">
          <mxGeometry x="0.26" y="3" relative="1" as="geometry">
            <mxPoint x="67" y="-20" as="offset" />
          </mxGeometry>
        </mxCell>
        <mxCell id="M5dAslkAMIHiw4sGl7hw-49" value="" style="rounded=1;whiteSpace=wrap;html=1;fontSize=40;fontFamily=Courier New;labelBorderColor=none;strokeWidth=4;fontStyle=1" vertex="1" parent="1">
          <mxGeometry x="1116" y="827" width="246" height="185" as="geometry" />
        </mxCell>
        <mxCell id="M5dAslkAMIHiw4sGl7hw-50" value="Memory" style="rounded=1;whiteSpace=wrap;html=1;fontSize=18;fontFamily=Courier New;strokeWidth=4;fontStyle=1" vertex="1" parent="1">
          <mxGeometry x="1228" y="855" width="105" height="63" as="geometry" />
        </mxCell>
        <mxCell id="M5dAslkAMIHiw4sGl7hw-51" value="" style="endArrow=classic;html=1;rounded=0;entryX=0.006;entryY=0.365;entryDx=0;entryDy=0;entryPerimeter=0;exitX=0.037;exitY=0.413;exitDx=0;exitDy=0;exitPerimeter=0;fontFamily=Courier New;fontSize=20;labelBorderColor=none;strokeWidth=4;fontStyle=1" edge="1" parent="1">
          <mxGeometry width="50" height="50" relative="1" as="geometry">
            <mxPoint x="1019.802" y="878.283" as="sourcePoint" />
            <mxPoint x="1116.44" y="878.13" as="targetPoint" />
          </mxGeometry>
        </mxCell>
        <mxCell id="M5dAslkAMIHiw4sGl7hw-52" value="load_or_store" style="edgeLabel;html=1;align=center;verticalAlign=middle;resizable=0;points=[];fontFamily=Courier New;fontSize=20;labelBorderColor=none;fontStyle=1" vertex="1" connectable="0" parent="M5dAslkAMIHiw4sGl7hw-51">
          <mxGeometry x="-0.2971" relative="1" as="geometry">
            <mxPoint x="-109" y="-3" as="offset" />
          </mxGeometry>
        </mxCell>
        <mxCell id="M5dAslkAMIHiw4sGl7hw-53" value="" style="endArrow=classic;html=1;rounded=0;exitX=1.007;exitY=0.461;exitDx=0;exitDy=0;fontFamily=Courier New;fontSize=20;labelBorderColor=none;strokeWidth=4;fontStyle=1;exitPerimeter=0;" edge="1" parent="1">
          <mxGeometry width="50" height="50" relative="1" as="geometry">
            <mxPoint x="1364" y="859.18" as="sourcePoint" />
            <mxPoint x="1460" y="859" as="targetPoint" />
          </mxGeometry>
        </mxCell>
        <mxCell id="M5dAslkAMIHiw4sGl7hw-54" value="instruction_o" style="edgeLabel;html=1;align=center;verticalAlign=middle;resizable=0;points=[];fontFamily=Courier New;fontSize=20;labelBorderColor=none;fontStyle=1" vertex="1" connectable="0" parent="M5dAslkAMIHiw4sGl7hw-53">
          <mxGeometry x="-0.2971" relative="1" as="geometry">
            <mxPoint x="159" as="offset" />
          </mxGeometry>
        </mxCell>
        <mxCell id="M5dAslkAMIHiw4sGl7hw-56" value="" style="endArrow=classic;html=1;rounded=0;entryX=0.006;entryY=0.365;entryDx=0;entryDy=0;entryPerimeter=0;exitX=0.037;exitY=0.413;exitDx=0;exitDy=0;exitPerimeter=0;fontFamily=Courier New;fontSize=20;labelBorderColor=none;strokeWidth=4;fontStyle=1" edge="1" parent="1">
          <mxGeometry width="50" height="50" relative="1" as="geometry">
            <mxPoint x="1019.802" y="848.283" as="sourcePoint" />
            <mxPoint x="1116.44" y="848.13" as="targetPoint" />
          </mxGeometry>
        </mxCell>
        <mxCell id="M5dAslkAMIHiw4sGl7hw-57" value="clk" style="edgeLabel;html=1;align=center;verticalAlign=middle;resizable=0;points=[];fontFamily=Courier New;fontSize=20;labelBorderColor=none;fontStyle=1" vertex="1" connectable="0" parent="M5dAslkAMIHiw4sGl7hw-56">
          <mxGeometry x="-0.2971" relative="1" as="geometry">
            <mxPoint x="-109" y="-3" as="offset" />
          </mxGeometry>
        </mxCell>
        <mxCell id="M5dAslkAMIHiw4sGl7hw-58" value="" style="endArrow=classic;html=1;rounded=0;entryX=0.006;entryY=0.365;entryDx=0;entryDy=0;entryPerimeter=0;exitX=0.037;exitY=0.413;exitDx=0;exitDy=0;exitPerimeter=0;fontFamily=Courier New;fontSize=20;labelBorderColor=none;strokeWidth=4;fontStyle=1" edge="1" parent="1">
          <mxGeometry width="50" height="50" relative="1" as="geometry">
            <mxPoint x="1019.8020000000001" y="905.373" as="sourcePoint" />
            <mxPoint x="1116.44" y="905.22" as="targetPoint" />
          </mxGeometry>
        </mxCell>
        <mxCell id="M5dAslkAMIHiw4sGl7hw-59" value="valid_i" style="edgeLabel;html=1;align=center;verticalAlign=middle;resizable=0;points=[];fontFamily=Courier New;fontSize=20;labelBorderColor=none;fontStyle=1" vertex="1" connectable="0" parent="M5dAslkAMIHiw4sGl7hw-58">
          <mxGeometry x="-0.2971" relative="1" as="geometry">
            <mxPoint x="-109" y="-3" as="offset" />
          </mxGeometry>
        </mxCell>
        <mxCell id="M5dAslkAMIHiw4sGl7hw-61" value="" style="endArrow=classic;html=1;rounded=0;entryX=0.006;entryY=0.365;entryDx=0;entryDy=0;entryPerimeter=0;exitX=0.037;exitY=0.413;exitDx=0;exitDy=0;exitPerimeter=0;fontFamily=Courier New;fontSize=20;labelBorderColor=none;strokeWidth=4;fontStyle=1" edge="1" parent="1">
          <mxGeometry width="50" height="50" relative="1" as="geometry">
            <mxPoint x="1019.8020000000001" y="963.283" as="sourcePoint" />
            <mxPoint x="1116.44" y="963.13" as="targetPoint" />
          </mxGeometry>
        </mxCell>
        <mxCell id="M5dAslkAMIHiw4sGl7hw-62" value="valid_data_i" style="edgeLabel;html=1;align=center;verticalAlign=middle;resizable=0;points=[];fontFamily=Courier New;fontSize=20;labelBorderColor=none;fontStyle=1" vertex="1" connectable="0" parent="M5dAslkAMIHiw4sGl7hw-61">
          <mxGeometry x="-0.2971" relative="1" as="geometry">
            <mxPoint x="-109" y="-3" as="offset" />
          </mxGeometry>
        </mxCell>
        <mxCell id="M5dAslkAMIHiw4sGl7hw-63" value="" style="endArrow=classic;html=1;rounded=0;entryX=0.006;entryY=0.365;entryDx=0;entryDy=0;entryPerimeter=0;exitX=0.037;exitY=0.413;exitDx=0;exitDy=0;exitPerimeter=0;fontFamily=Courier New;fontSize=20;labelBorderColor=none;strokeWidth=4;fontStyle=1" edge="1" parent="1">
          <mxGeometry width="50" height="50" relative="1" as="geometry">
            <mxPoint x="1019.8020000000001" y="933.283" as="sourcePoint" />
            <mxPoint x="1116.44" y="933.13" as="targetPoint" />
          </mxGeometry>
        </mxCell>
        <mxCell id="M5dAslkAMIHiw4sGl7hw-64" value="address_i" style="edgeLabel;html=1;align=center;verticalAlign=middle;resizable=0;points=[];fontFamily=Courier New;fontSize=20;labelBorderColor=none;fontStyle=1" vertex="1" connectable="0" parent="M5dAslkAMIHiw4sGl7hw-63">
          <mxGeometry x="-0.2971" relative="1" as="geometry">
            <mxPoint x="-109" y="-3" as="offset" />
          </mxGeometry>
        </mxCell>
        <mxCell id="M5dAslkAMIHiw4sGl7hw-65" value="" style="endArrow=classic;html=1;rounded=0;entryX=0.006;entryY=0.365;entryDx=0;entryDy=0;entryPerimeter=0;exitX=0.037;exitY=0.413;exitDx=0;exitDy=0;exitPerimeter=0;fontFamily=Courier New;fontSize=20;labelBorderColor=none;strokeWidth=4;fontStyle=1" edge="1" parent="1">
          <mxGeometry width="50" height="50" relative="1" as="geometry">
            <mxPoint x="1019.8020000000001" y="993.283" as="sourcePoint" />
            <mxPoint x="1116.44" y="993.13" as="targetPoint" />
          </mxGeometry>
        </mxCell>
        <mxCell id="M5dAslkAMIHiw4sGl7hw-66" value="data_i" style="edgeLabel;html=1;align=center;verticalAlign=middle;resizable=0;points=[];fontFamily=Courier New;fontSize=20;labelBorderColor=none;fontStyle=1" vertex="1" connectable="0" parent="M5dAslkAMIHiw4sGl7hw-65">
          <mxGeometry x="-0.2971" relative="1" as="geometry">
            <mxPoint x="-109" y="-3" as="offset" />
          </mxGeometry>
        </mxCell>
        <mxCell id="M5dAslkAMIHiw4sGl7hw-67" value="" style="endArrow=classic;html=1;rounded=0;exitX=1.007;exitY=0.461;exitDx=0;exitDy=0;fontFamily=Courier New;fontSize=20;labelBorderColor=none;strokeWidth=4;fontStyle=1;exitPerimeter=0;" edge="1" parent="1">
          <mxGeometry width="50" height="50" relative="1" as="geometry">
            <mxPoint x="1362" y="889.18" as="sourcePoint" />
            <mxPoint x="1460" y="889" as="targetPoint" />
          </mxGeometry>
        </mxCell>
        <mxCell id="M5dAslkAMIHiw4sGl7hw-68" value="data_o" style="edgeLabel;html=1;align=center;verticalAlign=middle;resizable=0;points=[];fontFamily=Courier New;fontSize=20;labelBorderColor=none;fontStyle=1" vertex="1" connectable="0" parent="M5dAslkAMIHiw4sGl7hw-67">
          <mxGeometry x="-0.2971" relative="1" as="geometry">
            <mxPoint x="159" as="offset" />
          </mxGeometry>
        </mxCell>
        <mxCell id="M5dAslkAMIHiw4sGl7hw-69" value="" style="endArrow=classic;html=1;rounded=0;exitX=1.007;exitY=0.461;exitDx=0;exitDy=0;fontFamily=Courier New;fontSize=20;labelBorderColor=none;strokeWidth=4;fontStyle=1;exitPerimeter=0;" edge="1" parent="1">
          <mxGeometry width="50" height="50" relative="1" as="geometry">
            <mxPoint x="1364" y="919.18" as="sourcePoint" />
            <mxPoint x="1460" y="920" as="targetPoint" />
          </mxGeometry>
        </mxCell>
        <mxCell id="M5dAslkAMIHiw4sGl7hw-70" value="valid_o" style="edgeLabel;html=1;align=center;verticalAlign=middle;resizable=0;points=[];fontFamily=Courier New;fontSize=20;labelBorderColor=none;fontStyle=1" vertex="1" connectable="0" parent="M5dAslkAMIHiw4sGl7hw-69">
          <mxGeometry x="-0.2971" relative="1" as="geometry">
            <mxPoint x="159" as="offset" />
          </mxGeometry>
        </mxCell>
        <mxCell id="M5dAslkAMIHiw4sGl7hw-71" value="" style="endArrow=classic;html=1;rounded=0;exitX=1.007;exitY=0.461;exitDx=0;exitDy=0;fontFamily=Courier New;fontSize=20;labelBorderColor=none;strokeWidth=4;fontStyle=1;exitPerimeter=0;" edge="1" parent="1">
          <mxGeometry width="50" height="50" relative="1" as="geometry">
            <mxPoint x="1364" y="949.18" as="sourcePoint" />
            <mxPoint x="1460" y="950" as="targetPoint" />
          </mxGeometry>
        </mxCell>
        <mxCell id="M5dAslkAMIHiw4sGl7hw-72" value="ready_o" style="edgeLabel;html=1;align=center;verticalAlign=middle;resizable=0;points=[];fontFamily=Courier New;fontSize=20;labelBorderColor=none;fontStyle=1" vertex="1" connectable="0" parent="M5dAslkAMIHiw4sGl7hw-71">
          <mxGeometry x="-0.2971" relative="1" as="geometry">
            <mxPoint x="159" as="offset" />
          </mxGeometry>
        </mxCell>
        <mxCell id="M5dAslkAMIHiw4sGl7hw-73" value="" style="endArrow=classic;html=1;rounded=0;exitX=1.007;exitY=0.461;exitDx=0;exitDy=0;fontFamily=Courier New;fontSize=20;labelBorderColor=none;strokeWidth=4;fontStyle=1;exitPerimeter=0;" edge="1" parent="1">
          <mxGeometry width="50" height="50" relative="1" as="geometry">
            <mxPoint x="1364" y="979.18" as="sourcePoint" />
            <mxPoint x="1460" y="979" as="targetPoint" />
          </mxGeometry>
        </mxCell>
        <mxCell id="M5dAslkAMIHiw4sGl7hw-74" value="done" style="edgeLabel;html=1;align=center;verticalAlign=middle;resizable=0;points=[];fontFamily=Courier New;fontSize=20;labelBorderColor=none;fontStyle=1" vertex="1" connectable="0" parent="M5dAslkAMIHiw4sGl7hw-73">
          <mxGeometry x="-0.2971" relative="1" as="geometry">
            <mxPoint x="159" as="offset" />
          </mxGeometry>
        </mxCell>
        <mxCell id="M5dAslkAMIHiw4sGl7hw-75" value="" style="endArrow=classic;html=1;rounded=0;entryX=0.006;entryY=0.365;entryDx=0;entryDy=0;entryPerimeter=0;exitX=0.037;exitY=0.413;exitDx=0;exitDy=0;exitPerimeter=0;fontFamily=Courier New;fontSize=20;labelBorderColor=none;strokeWidth=4;fontStyle=1" edge="1" parent="1">
          <mxGeometry width="50" height="50" relative="1" as="geometry">
            <mxPoint x="1245.0020000000002" y="280.153" as="sourcePoint" />
            <mxPoint x="1341.64" y="280" as="targetPoint" />
          </mxGeometry>
        </mxCell>
        <mxCell id="M5dAslkAMIHiw4sGl7hw-76" value="valid_vmu_o" style="edgeLabel;html=1;align=center;verticalAlign=middle;resizable=0;points=[];fontFamily=Courier New;fontSize=20;labelBorderColor=none;fontStyle=1" vertex="1" connectable="0" parent="M5dAslkAMIHiw4sGl7hw-75">
          <mxGeometry x="-0.2971" relative="1" as="geometry">
            <mxPoint x="-109" y="-3" as="offset" />
          </mxGeometry>
        </mxCell>
        <mxCell id="M5dAslkAMIHiw4sGl7hw-77" value="" style="endArrow=classic;html=1;rounded=0;entryX=0.006;entryY=0.365;entryDx=0;entryDy=0;entryPerimeter=0;exitX=0.037;exitY=0.413;exitDx=0;exitDy=0;exitPerimeter=0;fontFamily=Courier New;fontSize=20;labelBorderColor=none;strokeWidth=4;fontStyle=1" edge="1" parent="1">
          <mxGeometry width="50" height="50" relative="1" as="geometry">
            <mxPoint x="1245.0020000000002" y="510.153" as="sourcePoint" />
            <mxPoint x="1341.64" y="510" as="targetPoint" />
          </mxGeometry>
        </mxCell>
        <mxCell id="M5dAslkAMIHiw4sGl7hw-78" value="valid_vcu_o" style="edgeLabel;html=1;align=center;verticalAlign=middle;resizable=0;points=[];fontFamily=Courier New;fontSize=20;labelBorderColor=none;fontStyle=1" vertex="1" connectable="0" parent="M5dAslkAMIHiw4sGl7hw-77">
          <mxGeometry x="-0.2971" relative="1" as="geometry">
            <mxPoint x="-109" y="-3" as="offset" />
          </mxGeometry>
        </mxCell>
        <mxCell id="M5dAslkAMIHiw4sGl7hw-79" value="" style="endArrow=classic;html=1;rounded=0;entryX=0.006;entryY=0.365;entryDx=0;entryDy=0;entryPerimeter=0;exitX=0.037;exitY=0.413;exitDx=0;exitDy=0;exitPerimeter=0;fontFamily=Courier New;fontSize=20;labelBorderColor=none;strokeWidth=4;fontStyle=1" edge="1" parent="1">
          <mxGeometry width="50" height="50" relative="1" as="geometry">
            <mxPoint x="1245.0020000000002" y="543.3530000000001" as="sourcePoint" />
            <mxPoint x="1341.64" y="543.2" as="targetPoint" />
          </mxGeometry>
        </mxCell>
        <mxCell id="M5dAslkAMIHiw4sGl7hw-80" value="ready_o_csb_vcu" style="edgeLabel;html=1;align=center;verticalAlign=middle;resizable=0;points=[];fontFamily=Courier New;fontSize=20;labelBorderColor=none;fontStyle=1" vertex="1" connectable="0" parent="M5dAslkAMIHiw4sGl7hw-79">
          <mxGeometry x="-0.2971" relative="1" as="geometry">
            <mxPoint x="-109" y="-3" as="offset" />
          </mxGeometry>
        </mxCell>
        <mxCell id="M5dAslkAMIHiw4sGl7hw-81" value="" style="endArrow=classic;html=1;rounded=0;entryX=0.006;entryY=0.365;entryDx=0;entryDy=0;entryPerimeter=0;exitX=0.037;exitY=0.413;exitDx=0;exitDy=0;exitPerimeter=0;fontFamily=Courier New;fontSize=20;labelBorderColor=none;strokeWidth=4;fontStyle=1" edge="1" parent="1">
          <mxGeometry width="50" height="50" relative="1" as="geometry">
            <mxPoint x="1245.0020000000002" y="315.1530000000001" as="sourcePoint" />
            <mxPoint x="1341.64" y="315.00000000000006" as="targetPoint" />
          </mxGeometry>
        </mxCell>
        <mxCell id="M5dAslkAMIHiw4sGl7hw-82" value="ready_o_csb_vmu" style="edgeLabel;html=1;align=center;verticalAlign=middle;resizable=0;points=[];fontFamily=Courier New;fontSize=20;labelBorderColor=none;fontStyle=1" vertex="1" connectable="0" parent="M5dAslkAMIHiw4sGl7hw-81">
          <mxGeometry x="-0.2971" relative="1" as="geometry">
            <mxPoint x="-109" y="-3" as="offset" />
          </mxGeometry>
        </mxCell>
        <mxCell id="M5dAslkAMIHiw4sGl7hw-83" value="Scoreboard" style="rounded=1;whiteSpace=wrap;html=1;fontSize=20;fontFamily=Courier New;labelBorderColor=none;strokeWidth=4;fontStyle=1" vertex="1" parent="1">
          <mxGeometry x="286.64" y="3035" width="150" height="245" as="geometry" />
        </mxCell>
        <mxCell id="M5dAslkAMIHiw4sGl7hw-84" value="" style="endArrow=classic;html=1;rounded=0;entryX=0.006;entryY=0.365;entryDx=0;entryDy=0;entryPerimeter=0;exitX=0.037;exitY=0.413;exitDx=0;exitDy=0;exitPerimeter=0;fontFamily=Courier New;fontSize=20;labelBorderColor=none;strokeWidth=4;fontStyle=1" edge="1" parent="1">
          <mxGeometry width="50" height="50" relative="1" as="geometry">
            <mxPoint x="190.00199999999995" y="3098.2030000000004" as="sourcePoint" />
            <mxPoint x="286.6400000000001" y="3098.05" as="targetPoint" />
          </mxGeometry>
        </mxCell>
        <mxCell id="M5dAslkAMIHiw4sGl7hw-85" value="instruction" style="edgeLabel;html=1;align=center;verticalAlign=middle;resizable=0;points=[];fontFamily=Courier New;fontSize=20;labelBorderColor=none;fontStyle=1" vertex="1" connectable="0" parent="M5dAslkAMIHiw4sGl7hw-84">
          <mxGeometry x="-0.2971" relative="1" as="geometry">
            <mxPoint x="-109" y="-2" as="offset" />
          </mxGeometry>
        </mxCell>
        <mxCell id="M5dAslkAMIHiw4sGl7hw-86" value="" style="endArrow=classic;html=1;rounded=0;entryX=0.006;entryY=0.365;entryDx=0;entryDy=0;entryPerimeter=0;exitX=0.037;exitY=0.413;exitDx=0;exitDy=0;exitPerimeter=0;fontFamily=Courier New;fontSize=20;labelBorderColor=none;strokeWidth=4;fontStyle=1" edge="1" parent="1">
          <mxGeometry width="50" height="50" relative="1" as="geometry">
            <mxPoint x="190.00199999999995" y="3068.2030000000004" as="sourcePoint" />
            <mxPoint x="286.6400000000001" y="3068.05" as="targetPoint" />
          </mxGeometry>
        </mxCell>
        <mxCell id="M5dAslkAMIHiw4sGl7hw-87" value="clk" style="edgeLabel;html=1;align=center;verticalAlign=middle;resizable=0;points=[];fontFamily=Courier New;fontSize=20;labelBorderColor=none;fontStyle=1" vertex="1" connectable="0" parent="M5dAslkAMIHiw4sGl7hw-86">
          <mxGeometry x="-0.2971" relative="1" as="geometry">
            <mxPoint x="-109" y="-2" as="offset" />
          </mxGeometry>
        </mxCell>
        <mxCell id="M5dAslkAMIHiw4sGl7hw-88" value="" style="endArrow=classic;html=1;rounded=0;entryX=0.006;entryY=0.365;entryDx=0;entryDy=0;entryPerimeter=0;exitX=0.037;exitY=0.413;exitDx=0;exitDy=0;exitPerimeter=0;fontFamily=Courier New;fontSize=20;labelBorderColor=none;strokeWidth=4;fontStyle=1" edge="1" parent="1">
          <mxGeometry width="50" height="50" relative="1" as="geometry">
            <mxPoint x="190.00199999999995" y="3128.2030000000004" as="sourcePoint" />
            <mxPoint x="286.6400000000001" y="3128.05" as="targetPoint" />
          </mxGeometry>
        </mxCell>
        <mxCell id="M5dAslkAMIHiw4sGl7hw-89" value="valid_i" style="edgeLabel;html=1;align=center;verticalAlign=middle;resizable=0;points=[];fontFamily=Courier New;fontSize=20;labelBorderColor=none;fontStyle=1" vertex="1" connectable="0" parent="M5dAslkAMIHiw4sGl7hw-88">
          <mxGeometry x="-0.2971" relative="1" as="geometry">
            <mxPoint x="-109" y="-2" as="offset" />
          </mxGeometry>
        </mxCell>
        <mxCell id="M5dAslkAMIHiw4sGl7hw-90" value="" style="endArrow=classic;html=1;rounded=0;entryX=0.006;entryY=0.365;entryDx=0;entryDy=0;entryPerimeter=0;exitX=0.037;exitY=0.413;exitDx=0;exitDy=0;exitPerimeter=0;fontFamily=Courier New;fontSize=20;labelBorderColor=none;strokeWidth=4;fontStyle=1" edge="1" parent="1">
          <mxGeometry width="50" height="50" relative="1" as="geometry">
            <mxPoint x="190.00199999999995" y="3158.2030000000004" as="sourcePoint" />
            <mxPoint x="286.6400000000001" y="3158.05" as="targetPoint" />
          </mxGeometry>
        </mxCell>
        <mxCell id="M5dAslkAMIHiw4sGl7hw-91" value="vmu_ready" style="edgeLabel;html=1;align=center;verticalAlign=middle;resizable=0;points=[];fontFamily=Courier New;fontSize=20;labelBorderColor=none;fontStyle=1" vertex="1" connectable="0" parent="M5dAslkAMIHiw4sGl7hw-90">
          <mxGeometry x="-0.2971" relative="1" as="geometry">
            <mxPoint x="-109" y="-2" as="offset" />
          </mxGeometry>
        </mxCell>
        <mxCell id="M5dAslkAMIHiw4sGl7hw-92" value="" style="endArrow=classic;html=1;rounded=0;entryX=0.006;entryY=0.365;entryDx=0;entryDy=0;entryPerimeter=0;exitX=0.037;exitY=0.413;exitDx=0;exitDy=0;exitPerimeter=0;fontFamily=Courier New;fontSize=20;labelBorderColor=none;strokeWidth=4;fontStyle=1" edge="1" parent="1">
          <mxGeometry width="50" height="50" relative="1" as="geometry">
            <mxPoint x="190.00199999999995" y="3188.2030000000004" as="sourcePoint" />
            <mxPoint x="286.6400000000001" y="3188.05" as="targetPoint" />
          </mxGeometry>
        </mxCell>
        <mxCell id="M5dAslkAMIHiw4sGl7hw-93" value="vcu_ready" style="edgeLabel;html=1;align=center;verticalAlign=middle;resizable=0;points=[];fontFamily=Courier New;fontSize=20;labelBorderColor=none;fontStyle=1" vertex="1" connectable="0" parent="M5dAslkAMIHiw4sGl7hw-92">
          <mxGeometry x="-0.2971" relative="1" as="geometry">
            <mxPoint x="-109" y="-2" as="offset" />
          </mxGeometry>
        </mxCell>
        <mxCell id="M5dAslkAMIHiw4sGl7hw-94" value="" style="endArrow=classic;html=1;rounded=0;entryX=0.006;entryY=0.365;entryDx=0;entryDy=0;entryPerimeter=0;exitX=0.037;exitY=0.413;exitDx=0;exitDy=0;exitPerimeter=0;fontFamily=Courier New;fontSize=20;labelBorderColor=none;strokeWidth=4;fontStyle=1" edge="1" parent="1">
          <mxGeometry width="50" height="50" relative="1" as="geometry">
            <mxPoint x="190.00199999999995" y="3218.2030000000004" as="sourcePoint" />
            <mxPoint x="286.6400000000001" y="3218.05" as="targetPoint" />
          </mxGeometry>
        </mxCell>
        <mxCell id="M5dAslkAMIHiw4sGl7hw-95" value="vmu_done" style="edgeLabel;html=1;align=center;verticalAlign=middle;resizable=0;points=[];fontFamily=Courier New;fontSize=20;labelBorderColor=none;fontStyle=1" vertex="1" connectable="0" parent="M5dAslkAMIHiw4sGl7hw-94">
          <mxGeometry x="-0.2971" relative="1" as="geometry">
            <mxPoint x="-109" y="-2" as="offset" />
          </mxGeometry>
        </mxCell>
        <mxCell id="M5dAslkAMIHiw4sGl7hw-96" value="" style="endArrow=classic;html=1;rounded=0;entryX=0.006;entryY=0.365;entryDx=0;entryDy=0;entryPerimeter=0;exitX=0.037;exitY=0.413;exitDx=0;exitDy=0;exitPerimeter=0;fontFamily=Courier New;fontSize=20;labelBorderColor=none;strokeWidth=4;fontStyle=1" edge="1" parent="1">
          <mxGeometry width="50" height="50" relative="1" as="geometry">
            <mxPoint x="190.00199999999995" y="3247.2030000000004" as="sourcePoint" />
            <mxPoint x="286.6400000000001" y="3247.05" as="targetPoint" />
          </mxGeometry>
        </mxCell>
        <mxCell id="M5dAslkAMIHiw4sGl7hw-97" value="vcu_done" style="edgeLabel;html=1;align=center;verticalAlign=middle;resizable=0;points=[];fontFamily=Courier New;fontSize=20;labelBorderColor=none;fontStyle=1" vertex="1" connectable="0" parent="M5dAslkAMIHiw4sGl7hw-96">
          <mxGeometry x="-0.2971" relative="1" as="geometry">
            <mxPoint x="-109" y="-2" as="offset" />
          </mxGeometry>
        </mxCell>
        <mxCell id="M5dAslkAMIHiw4sGl7hw-98" value="" style="endArrow=classic;html=1;rounded=0;entryX=0.006;entryY=0.365;entryDx=0;entryDy=0;entryPerimeter=0;exitX=0.037;exitY=0.413;exitDx=0;exitDy=0;exitPerimeter=0;fontFamily=Courier New;fontSize=20;labelBorderColor=none;strokeWidth=4;fontStyle=1" edge="1" parent="1">
          <mxGeometry width="50" height="50" relative="1" as="geometry">
            <mxPoint x="437.36199999999997" y="3070.7030000000004" as="sourcePoint" />
            <mxPoint x="534.0000000000001" y="3070.55" as="targetPoint" />
          </mxGeometry>
        </mxCell>
        <mxCell id="M5dAslkAMIHiw4sGl7hw-99" value="vmu_valid" style="edgeLabel;html=1;align=center;verticalAlign=middle;resizable=0;points=[];fontFamily=Courier New;fontSize=20;labelBorderColor=none;fontStyle=1" vertex="1" connectable="0" parent="M5dAslkAMIHiw4sGl7hw-98">
          <mxGeometry x="-0.2971" relative="1" as="geometry">
            <mxPoint x="134" y="-2" as="offset" />
          </mxGeometry>
        </mxCell>
        <mxCell id="M5dAslkAMIHiw4sGl7hw-100" value="" style="endArrow=classic;html=1;rounded=0;entryX=0.006;entryY=0.365;entryDx=0;entryDy=0;entryPerimeter=0;exitX=0.037;exitY=0.413;exitDx=0;exitDy=0;exitPerimeter=0;fontFamily=Courier New;fontSize=20;labelBorderColor=none;strokeWidth=4;fontStyle=1" edge="1" parent="1">
          <mxGeometry width="50" height="50" relative="1" as="geometry">
            <mxPoint x="436.64199999999994" y="3195.7030000000004" as="sourcePoint" />
            <mxPoint x="533.2800000000001" y="3195.55" as="targetPoint" />
          </mxGeometry>
        </mxCell>
        <mxCell id="M5dAslkAMIHiw4sGl7hw-101" value="vcu_destination_vr" style="edgeLabel;html=1;align=center;verticalAlign=middle;resizable=0;points=[];fontFamily=Courier New;fontSize=20;labelBorderColor=none;fontStyle=1" vertex="1" connectable="0" parent="M5dAslkAMIHiw4sGl7hw-100">
          <mxGeometry x="-0.2971" relative="1" as="geometry">
            <mxPoint x="185" y="-2" as="offset" />
          </mxGeometry>
        </mxCell>
        <mxCell id="M5dAslkAMIHiw4sGl7hw-102" value="" style="endArrow=classic;html=1;rounded=0;entryX=0.006;entryY=0.365;entryDx=0;entryDy=0;entryPerimeter=0;exitX=0.037;exitY=0.413;exitDx=0;exitDy=0;exitPerimeter=0;fontFamily=Courier New;fontSize=20;labelBorderColor=none;strokeWidth=4;fontStyle=1" edge="1" parent="1">
          <mxGeometry width="50" height="50" relative="1" as="geometry">
            <mxPoint x="437.36199999999997" y="3120.7030000000004" as="sourcePoint" />
            <mxPoint x="534.0000000000001" y="3120.55" as="targetPoint" />
          </mxGeometry>
        </mxCell>
        <mxCell id="M5dAslkAMIHiw4sGl7hw-103" value="vmu_load_or_store" style="edgeLabel;html=1;align=center;verticalAlign=middle;resizable=0;points=[];fontFamily=Courier New;fontSize=20;labelBorderColor=none;fontStyle=1" vertex="1" connectable="0" parent="M5dAslkAMIHiw4sGl7hw-102">
          <mxGeometry x="-0.2971" relative="1" as="geometry">
            <mxPoint x="179" as="offset" />
          </mxGeometry>
        </mxCell>
        <mxCell id="M5dAslkAMIHiw4sGl7hw-104" value="" style="endArrow=classic;html=1;rounded=0;entryX=0.006;entryY=0.365;entryDx=0;entryDy=0;entryPerimeter=0;exitX=0.037;exitY=0.413;exitDx=0;exitDy=0;exitPerimeter=0;fontFamily=Courier New;fontSize=20;labelBorderColor=none;strokeWidth=4;fontStyle=1" edge="1" parent="1">
          <mxGeometry width="50" height="50" relative="1" as="geometry">
            <mxPoint x="436.64199999999994" y="3145.7030000000004" as="sourcePoint" />
            <mxPoint x="533.2800000000001" y="3145.55" as="targetPoint" />
          </mxGeometry>
        </mxCell>
        <mxCell id="M5dAslkAMIHiw4sGl7hw-105" value="vmu_address_i" style="edgeLabel;html=1;align=center;verticalAlign=middle;resizable=0;points=[];fontFamily=Courier New;fontSize=20;labelBorderColor=none;fontStyle=1" vertex="1" connectable="0" parent="M5dAslkAMIHiw4sGl7hw-104">
          <mxGeometry x="-0.2971" relative="1" as="geometry">
            <mxPoint x="155" as="offset" />
          </mxGeometry>
        </mxCell>
        <mxCell id="M5dAslkAMIHiw4sGl7hw-106" value="" style="endArrow=classic;html=1;rounded=0;entryX=0.006;entryY=0.365;entryDx=0;entryDy=0;entryPerimeter=0;exitX=0.037;exitY=0.413;exitDx=0;exitDy=0;exitPerimeter=0;fontFamily=Courier New;fontSize=20;labelBorderColor=none;strokeWidth=4;fontStyle=1" edge="1" parent="1">
          <mxGeometry width="50" height="50" relative="1" as="geometry">
            <mxPoint x="436.64199999999994" y="3170.7030000000004" as="sourcePoint" />
            <mxPoint x="533.2800000000001" y="3170.55" as="targetPoint" />
          </mxGeometry>
        </mxCell>
        <mxCell id="M5dAslkAMIHiw4sGl7hw-107" value="vmu_instruction_decode" style="edgeLabel;html=1;align=center;verticalAlign=middle;resizable=0;points=[];fontFamily=Courier New;fontSize=20;labelBorderColor=none;fontStyle=1" vertex="1" connectable="0" parent="M5dAslkAMIHiw4sGl7hw-106">
          <mxGeometry x="-0.2971" relative="1" as="geometry">
            <mxPoint x="210" as="offset" />
          </mxGeometry>
        </mxCell>
        <mxCell id="M5dAslkAMIHiw4sGl7hw-108" value="" style="endArrow=classic;html=1;rounded=0;entryX=0.006;entryY=0.365;entryDx=0;entryDy=0;entryPerimeter=0;exitX=0.037;exitY=0.413;exitDx=0;exitDy=0;exitPerimeter=0;fontFamily=Courier New;fontSize=20;labelBorderColor=none;strokeWidth=4;fontStyle=1" edge="1" parent="1">
          <mxGeometry width="50" height="50" relative="1" as="geometry">
            <mxPoint x="437.36199999999997" y="3095.7030000000004" as="sourcePoint" />
            <mxPoint x="534.0000000000001" y="3095.55" as="targetPoint" />
          </mxGeometry>
        </mxCell>
        <mxCell id="M5dAslkAMIHiw4sGl7hw-109" value="vcu_valid" style="edgeLabel;html=1;align=center;verticalAlign=middle;resizable=0;points=[];fontFamily=Courier New;fontSize=20;labelBorderColor=none;fontStyle=1" vertex="1" connectable="0" parent="M5dAslkAMIHiw4sGl7hw-108">
          <mxGeometry x="-0.2971" relative="1" as="geometry">
            <mxPoint x="134" y="-2" as="offset" />
          </mxGeometry>
        </mxCell>
        <mxCell id="M5dAslkAMIHiw4sGl7hw-110" value="" style="endArrow=classic;html=1;rounded=0;entryX=0.006;entryY=0.365;entryDx=0;entryDy=0;entryPerimeter=0;exitX=0.037;exitY=0.413;exitDx=0;exitDy=0;exitPerimeter=0;fontFamily=Courier New;fontSize=20;labelBorderColor=none;strokeWidth=4;fontStyle=1" edge="1" parent="1">
          <mxGeometry width="50" height="50" relative="1" as="geometry">
            <mxPoint x="436.64199999999994" y="3220.7030000000004" as="sourcePoint" />
            <mxPoint x="533.2800000000001" y="3220.55" as="targetPoint" />
          </mxGeometry>
        </mxCell>
        <mxCell id="M5dAslkAMIHiw4sGl7hw-111" value="src_vr1" style="edgeLabel;html=1;align=center;verticalAlign=middle;resizable=0;points=[];fontFamily=Courier New;fontSize=20;labelBorderColor=none;fontStyle=1" vertex="1" connectable="0" parent="M5dAslkAMIHiw4sGl7hw-110">
          <mxGeometry x="-0.2971" relative="1" as="geometry">
            <mxPoint x="120" as="offset" />
          </mxGeometry>
        </mxCell>
        <mxCell id="M5dAslkAMIHiw4sGl7hw-112" value="" style="endArrow=classic;html=1;rounded=0;entryX=0.006;entryY=0.365;entryDx=0;entryDy=0;entryPerimeter=0;exitX=0.037;exitY=0.413;exitDx=0;exitDy=0;exitPerimeter=0;fontFamily=Courier New;fontSize=20;labelBorderColor=none;strokeWidth=4;fontStyle=1" edge="1" parent="1">
          <mxGeometry width="50" height="50" relative="1" as="geometry">
            <mxPoint x="436.64199999999994" y="3245.7030000000004" as="sourcePoint" />
            <mxPoint x="533.2800000000001" y="3245.55" as="targetPoint" />
          </mxGeometry>
        </mxCell>
        <mxCell id="M5dAslkAMIHiw4sGl7hw-113" value="src_vr2" style="edgeLabel;html=1;align=center;verticalAlign=middle;resizable=0;points=[];fontFamily=Courier New;fontSize=20;labelBorderColor=none;fontStyle=1" vertex="1" connectable="0" parent="M5dAslkAMIHiw4sGl7hw-112">
          <mxGeometry x="-0.2971" relative="1" as="geometry">
            <mxPoint x="120" y="-2" as="offset" />
          </mxGeometry>
        </mxCell>
      </root>
    </mxGraphModel>
  </diagram>
</mxfile>
